<svg xmlns="http://www.w3.org/2000/svg" xmlns:v="https://vecta.io/nano" width="172" height="57" fill="none"><path d="M158.303 0H13.705l-1.574.003-1.321.018c-.965.011-1.928.095-2.88.252a9.64 9.64 0 0 0-2.732.893 9.25 9.25 0 0 0-2.327 1.68 8.92 8.92 0 0 0-1.694 2.31 9.35 9.35 0 0 0-.898 2.712 18.36 18.36 0 0 0-.258 2.853L0 12.033v32.938l.022 1.314a18.36 18.36 0 0 0 .258 2.853 9.33 9.33 0 0 0 .898 2.714 8.85 8.85 0 0 0 1.694 2.3c.68.68 1.465 1.247 2.327 1.68s1.781.737 2.732.899c.952.155 1.915.239 2.88.252l1.321.015 1.574.003h144.598l1.558-.003 1.325-.015c.963-.012 1.924-.096 2.875-.252a9.85 9.85 0 0 0 2.743-.899 9.02 9.02 0 0 0 2.324-1.68 9.13 9.13 0 0 0 1.699-2.3 9.33 9.33 0 0 0 .889-2.714 18.95 18.95 0 0 0 .267-2.853l.006-1.314.011-1.559V13.589l-.011-1.556-.006-1.312c-.017-.956-.106-1.91-.267-2.853s-.456-1.858-.889-2.712c-.888-1.714-2.295-3.109-4.023-3.99-.865-.431-1.789-.733-2.743-.893a18.9 18.9 0 0 0-2.875-.252l-1.325-.018L158.303 0z" fill="#000"/><path d="M12.138 55.753c-.438 0-.865-.006-1.3-.015-.9-.012-1.798-.089-2.687-.232a8.51 8.51 0 0 1-2.381-.781c-.743-.373-1.421-.862-2.008-1.449-.595-.58-1.091-1.252-1.467-1.99s-.644-1.54-.78-2.361c-.148-.883-.228-1.777-.239-2.672l-.021-1.301V12.033l.021-1.275a17.48 17.48 0 0 1 .238-2.668 8.15 8.15 0 0 1 .781-2.368A7.66 7.66 0 0 1 3.754 3.73c.591-.587 1.271-1.079 2.016-1.457a8.42 8.42 0 0 1 2.376-.775c.891-.145 1.793-.223 2.696-.234l1.297-.017h147.715l1.312.018c.895.011 1.788.088 2.672.232.835.141 1.644.404 2.401.781 1.492.762 2.706 1.968 3.472 3.448.374.74.633 1.533.769 2.35a18.51 18.51 0 0 1 .25 2.689l.004 1.268.011 1.556v29.823l-.011 1.532-.006 1.325a18.13 18.13 0 0 1-.245 2.641c-.135.828-.396 1.631-.777 2.38a7.8 7.8 0 0 1-1.459 1.975c-.588.59-1.267 1.082-2.012 1.457-.755.379-1.563.643-2.397.784a18.18 18.18 0 0 1-2.687.232l-1.29.015-1.558.003-146.165-.003z" fill="#fff"/><path d="M35.93 28.343a7.28 7.28 0 0 1 .963-3.525 7.36 7.36 0 0 1 2.559-2.627 7.55 7.55 0 0 0-2.601-2.298c-1.036-.555-2.187-.863-3.364-.899-2.51-.261-4.943 1.489-6.222 1.489-1.304 0-3.273-1.463-5.394-1.42a7.99 7.99 0 0 0-3.88 1.148c-1.172.709-2.138 1.706-2.806 2.895-2.891 4.962-.735 12.254 2.035 16.265 1.385 1.964 3.005 4.158 5.123 4.08 2.073-.085 2.848-1.311 5.35-1.311 2.479 0 3.206 1.311 5.367 1.261 2.225-.036 3.626-1.973 4.963-3.955a16.19 16.19 0 0 0 2.27-4.583 7.13 7.13 0 0 1-3.171-2.608c-.776-1.159-1.19-2.519-1.192-3.911zm-4.083-11.989a7.18 7.18 0 0 0 1.666-5.173 7.43 7.43 0 0 0-4.794 2.459c-.601.678-1.061 1.467-1.355 2.322s-.414 1.758-.355 2.659a6.17 6.17 0 0 0 2.682-.582 6.12 6.12 0 0 0 2.156-1.685zm28.957 22.32H54l-1.634 4.783h-2.882l6.444-17.696h2.994l6.444 17.696h-2.931l-1.632-4.783zm-6.099-2.207h5.393l-2.659-7.762h-.074l-2.66 7.762zm24.579.541c0 4.009-2.164 6.585-5.431 6.585a4.44 4.44 0 0 1-2.375-.545 4.39 4.39 0 0 1-1.72-1.712h-.062v6.39h-2.671v-17.17h2.585v2.146h.049a4.6 4.6 0 0 1 1.754-1.708 4.65 4.65 0 0 1 2.39-.573c3.303 0 5.48 2.588 5.48 6.587zm-2.746 0c0-2.612-1.362-4.329-3.439-4.329-2.041 0-3.414 1.753-3.414 4.329 0 2.599 1.373 4.34 3.414 4.34 2.077 0 3.439-1.705 3.439-4.34zm17.07 0c0 4.009-2.165 6.585-5.431 6.585a4.44 4.44 0 0 1-2.374-.545 4.39 4.39 0 0 1-1.72-1.712h-.062v6.39H81.35v-17.17h2.586v2.146h.049a4.6 4.6 0 0 1 1.754-1.708 4.65 4.65 0 0 1 2.39-.573c3.303 0 5.481 2.588 5.481 6.587zm-2.746 0c0-2.612-1.362-4.329-3.439-4.329-2.041 0-3.414 1.753-3.414 4.329 0 2.599 1.373 4.34 3.414 4.34 2.077 0 3.439-1.705 3.439-4.34zm12.211 1.519c.197 1.755 1.917 2.907 4.267 2.907 2.251 0 3.871-1.152 3.871-2.735 0-1.373-.977-2.196-3.29-2.76l-2.313-.552c-3.278-.785-4.8-2.305-4.8-4.77 0-3.053 2.684-5.15 6.494-5.15 3.773 0 6.358 2.097 6.445 5.15h-2.696c-.161-1.766-1.634-2.832-3.786-2.832s-3.624 1.079-3.624 2.648c0 1.251.94 1.987 3.241 2.551l1.967.479c3.662.859 5.182 2.317 5.182 4.905 0 3.311-2.659 5.384-6.889 5.384-3.959 0-6.631-2.025-6.804-5.226h2.735zm16.726-11.024v3.053h2.474v2.097h-2.474v7.113c0 1.105.495 1.62 1.583 1.62a8.42 8.42 0 0 0 .879-.061v2.085a7.41 7.41 0 0 1-1.484.122c-2.635 0-3.662-.981-3.662-3.483v-7.395h-1.892v-2.097h1.892v-3.053h2.684zm3.907 9.505c0-4.059 2.412-6.61 6.172-6.61 3.773 0 6.173 2.551 6.173 6.61 0 4.07-2.387 6.61-6.173 6.61s-6.172-2.54-6.172-6.61zm9.624 0c0-2.785-1.288-4.428-3.452-4.428s-3.452 1.656-3.452 4.428c0 2.796 1.288 4.427 3.452 4.427s3.452-1.631 3.452-4.427zm4.924-6.452h2.548v2.196h.061a3.08 3.08 0 0 1 1.148-1.716 3.12 3.12 0 0 1 1.983-.614 4.16 4.16 0 0 1 .915.099v2.477a3.77 3.77 0 0 0-1.2-.16 2.71 2.71 0 0 0-1.134.199 2.69 2.69 0 0 0-.947.651 2.66 2.66 0 0 0-.585.983c-.121.366-.162.753-.118 1.136v7.652h-2.671V30.556zm18.969 9.112c-.359 2.342-2.66 3.949-5.603 3.949-3.786 0-6.136-2.515-6.136-6.549 0-4.047 2.363-6.671 6.024-6.671 3.6 0 5.864 2.452 5.864 6.364v.907h-9.191v.16c-.043.475.017.953.176 1.403a3.35 3.35 0 0 0 .742 1.207 3.39 3.39 0 0 0 1.178.797 3.41 3.41 0 0 0 1.405.246 2.96 2.96 0 0 0 1.806-.413 2.93 2.93 0 0 0 1.199-1.401h2.536zm-9.03-3.851h6.506c.024-.427-.041-.854-.191-1.255s-.383-.766-.683-1.074a3.13 3.13 0 0 0-1.059-.713 3.15 3.15 0 0 0-1.258-.233 3.32 3.32 0 0 0-1.269.244 3.29 3.29 0 0 0-1.077.709 3.26 3.26 0 0 0-.718 1.065 3.23 3.23 0 0 0-.251 1.257zm-97.27-19.122c0-2.757 1.479-4.461 3.863-4.461.859-.042 1.703.237 2.363.783a3.39 3.39 0 0 1 1.203 2.163h-1.326a2.19 2.19 0 0 0-.806-1.261 2.22 2.22 0 0 0-1.434-.454c-1.54 0-2.503 1.243-2.503 3.229 0 1.98.963 3.223 2.508 3.223a2.16 2.16 0 0 0 1.401-.385 2.13 2.13 0 0 0 .833-1.182h1.326a3.31 3.31 0 0 1-1.228 2.09 3.36 3.36 0 0 1-2.333.708c-2.383 0-3.869-1.703-3.869-4.454zm8.886 1.038c-.041-.422.008-.847.143-1.249s.353-.771.64-1.085.638-.564 1.028-.735a3.09 3.09 0 0 1 2.481 0 3.07 3.07 0 0 1 1.029.735 3.02 3.02 0 0 1 .64 1.085c.135.402.183.827.143 1.249.041.422-.007.848-.141 1.251a3.03 3.03 0 0 1-.64 1.087c-.287.314-.638.565-1.029.737a3.09 3.09 0 0 1-2.484 0c-.391-.172-.742-.423-1.029-.737s-.505-.684-.64-1.087a3 3 0 0 1-.141-1.251zm4.791 0c0-1.391-.63-2.204-1.736-2.204s-1.735.813-1.735 2.204c0 1.402.625 2.209 1.735 2.209s1.736-.813 1.736-2.209zm3.028-3.205h1.23v1.019h.096a1.93 1.93 0 0 1 .781-.878 1.95 1.95 0 0 1 1.15-.265 2.12 2.12 0 0 1 .925.138c.294.114.558.292.774.522a2.08 2.08 0 0 1 .469.803 2.07 2.07 0 0 1 .072.925v4.154h-1.277V17.11c0-1.031-.452-1.544-1.397-1.544a1.49 1.49 0 0 0-.626.106c-.199.08-.377.201-.524.355a1.47 1.47 0 0 0-.326.54 1.46 1.46 0 0 0-.069.625v3.754h-1.277v-6.417zm9.838-.125c1.456 0 2.407.672 2.532 1.803h-1.225c-.118-.471-.582-.772-1.307-.772-.713 0-1.255.335-1.255.836 0 .383.327.625 1.029.784l1.075.247c1.231.283 1.808.808 1.808 1.751 0 1.208-1.136 2.015-2.681 2.015s-2.543-.689-2.657-1.826h1.279c.11.271.309.497.564.642s.552.201.844.159c.796 0 1.362-.353 1.362-.866 0-.383-.303-.63-.952-.784l-1.129-.259c-1.231-.289-1.801-.836-1.801-1.791 0-1.138 1.051-1.938 2.514-1.938zm4.269-.948l1.492-2.027h1.498l-1.67 2.027h-1.319zm.132 1.073h1.272v6.417h-1.272v-6.417zm3.262 7.059h1.307c.108.465.648.766 1.51.766 1.064 0 1.694-.501 1.694-1.349v-1.232h-.095a2.17 2.17 0 0 1-.846.818 2.19 2.19 0 0 1-1.152.26c-1.652 0-2.674-1.266-2.674-3.187 0-1.956 1.033-3.241 2.687-3.241a2.26 2.26 0 0 1 1.176.283 2.23 2.23 0 0 1 .856.848h.101v-1.025h1.224v6.47c0 1.468-1.159 2.399-2.99 2.399-1.617 0-2.663-.719-2.799-1.809zm4.535-3.931c0-1.278-.667-2.097-1.755-2.097-1.099 0-1.717.819-1.717 2.097s.618 2.098 1.717 2.098 1.755-.813 1.755-2.098zm8.746 3.288h-1.231v-1.019h-.101a1.93 1.93 0 0 1-.791.885c-.351.205-.758.296-1.164.259a2.12 2.12 0 0 1-.919-.14 2.09 2.09 0 0 1-.768-.519 2.08 2.08 0 0 1-.467-.797c-.094-.297-.119-.611-.075-.919v-4.166h1.279v3.836c0 1.037.421 1.532 1.36 1.532a1.48 1.48 0 0 0 .643-.082 1.47 1.47 0 0 0 .545-.348 1.45 1.45 0 0 0 .341-.547c.071-.206.095-.423.07-.639v-3.753h1.279v6.417zm7.508-1.733a2.61 2.61 0 0 1-1.063 1.433c-.512.339-1.129.489-1.742.423-.426.011-.85-.07-1.242-.237a2.94 2.94 0 0 1-1.026-.733 2.91 2.91 0 0 1-.621-1.092 2.89 2.89 0 0 1-.101-1.25c-.056-.42-.022-.848.103-1.253a2.95 2.95 0 0 1 .618-1.098 2.98 2.98 0 0 1 1.022-.745 3.01 3.01 0 0 1 1.241-.257c1.801 0 2.888 1.22 2.888 3.235v.442h-4.571v.071a1.68 1.68 0 0 0 .088.696 1.7 1.7 0 0 0 .364.601 1.71 1.71 0 0 0 .579.404 1.72 1.72 0 0 0 .693.137 1.56 1.56 0 0 0 .889-.157 1.55 1.55 0 0 0 .651-.621h1.23zm-4.494-2.068h3.27a1.54 1.54 0 0 0-.087-.635 1.55 1.55 0 0 0-.339-.546 1.56 1.56 0 0 0-.532-.363c-.201-.083-.418-.123-.636-.118-.22-.003-.44.038-.644.121a1.65 1.65 0 0 0-.547.36 1.64 1.64 0 0 0-.363.542 1.65 1.65 0 0 0-.122.639zm6.345-5.12h1.278v8.922h-1.278v-8.922zm3.053 5.71a3.01 3.01 0 0 1 .143-1.249 3.04 3.04 0 0 1 .64-1.085 3.07 3.07 0 0 1 1.029-.735 3.09 3.09 0 0 1 2.481 0 3.06 3.06 0 0 1 1.028.735 3.03 3.03 0 0 1 .641 1.085c.135.402.183.827.143 1.249a3.02 3.02 0 0 1-.782 2.338c-.287.314-.638.565-1.029.737a3.09 3.09 0 0 1-2.484 0c-.391-.172-.741-.423-1.029-.737a3.03 3.03 0 0 1-.781-2.338zm4.791 0c0-1.391-.63-2.204-1.737-2.204s-1.734.813-1.734 2.204c0 1.402.624 2.209 1.734 2.209s1.737-.813 1.737-2.209zm12.013 1.479a2.61 2.61 0 0 1-1.063 1.433c-.512.339-1.129.489-1.742.423-.426.011-.85-.07-1.242-.237a2.94 2.94 0 0 1-1.026-.733 2.91 2.91 0 0 1-.621-1.092 2.89 2.89 0 0 1-.101-1.25c-.056-.42-.022-.848.103-1.253a2.95 2.95 0 0 1 .618-1.098 2.98 2.98 0 0 1 1.022-.745 3.01 3.01 0 0 1 1.242-.257c1.8 0 2.887 1.22 2.887 3.235v.442h-4.57v.071a1.68 1.68 0 0 0 .087.696 1.7 1.7 0 0 0 .364.601 1.72 1.72 0 0 0 1.272.541c.306.036.615-.018.89-.157s.5-.355.65-.621h1.23zm-4.494-2.068h3.27a1.54 1.54 0 0 0-.087-.635 1.55 1.55 0 0 0-.339-.546 1.56 1.56 0 0 0-.532-.363 1.57 1.57 0 0 0-.635-.118c-.221-.003-.441.038-.645.121a1.67 1.67 0 0 0-.547.36 1.64 1.64 0 0 0-.363.542 1.65 1.65 0 0 0-.122.639zm6.286-2.616h1.23v1.019h.095a1.93 1.93 0 0 1 .781-.878 1.95 1.95 0 0 1 1.15-.265 2.12 2.12 0 0 1 .926.138c.294.114.558.292.773.522a2.09 2.09 0 0 1 .47.803c.093.299.118.615.072.925v4.154h-1.278V17.11c0-1.031-.452-1.544-1.396-1.544-.214-.01-.428.026-.626.106s-.377.201-.524.355a1.46 1.46 0 0 0-.396 1.165v3.754h-1.277v-6.417zm16.457 4.683a2.61 2.61 0 0 1-1.063 1.433c-.512.339-1.129.489-1.742.423-.426.011-.85-.07-1.242-.237a2.94 2.94 0 0 1-1.026-.733 2.91 2.91 0 0 1-.621-1.092 2.89 2.89 0 0 1-.101-1.25 2.95 2.95 0 0 1 .721-2.351 2.98 2.98 0 0 1 1.022-.745 3.01 3.01 0 0 1 1.242-.257c1.8 0 2.887 1.22 2.887 3.235v.442h-4.57v.071a1.68 1.68 0 0 0 .087.696 1.7 1.7 0 0 0 .364.601 1.72 1.72 0 0 0 1.272.541c.306.036.615-.018.89-.157s.5-.355.65-.621h1.23zm-4.493-2.068h3.269a1.54 1.54 0 0 0-.087-.635 1.55 1.55 0 0 0-.339-.546 1.56 1.56 0 0 0-.532-.363c-.201-.083-.418-.123-.636-.118-.22-.003-.44.038-.644.121a1.67 1.67 0 0 0-.547.36 1.64 1.64 0 0 0-.363.542 1.63 1.63 0 0 0-.121.639zm6.344-5.12h1.277v8.922h-1.277v-8.922z" fill="#000"/></svg>