<svg xmlns="http://www.w3.org/2000/svg" xmlns:v="https://vecta.io/nano" width="162" height="54" fill="none"><path d="M149.099 0H12.908l-1.482.003-1.244.017a17.94 17.94 0 0 0-2.713.239 9.04 9.04 0 0 0-2.573.846c-.809.413-1.549.95-2.191 1.591a8.45 8.45 0 0 0-1.595 2.188C.698 5.693.412 6.56.263 7.454S.031 9.251.021 10.157L0 11.4v31.204l.021 1.245a17.49 17.49 0 0 0 .243 2.703c.149.895.434 1.762.846 2.571a8.38 8.38 0 0 0 1.595 2.179c.64.644 1.38 1.181 2.191 1.591a9.09 9.09 0 0 0 2.573.852c.897.147 1.804.227 2.713.239l1.244.015 1.482.003h136.191l1.468-.003 1.248-.015a18.03 18.03 0 0 0 2.707-.239 9.23 9.23 0 0 0 2.584-.852c.81-.41 1.549-.947 2.189-1.591a8.62 8.62 0 0 0 1.6-2.179 8.9 8.9 0 0 0 .838-2.571 18.14 18.14 0 0 0 .251-2.703l.005-1.245.011-1.477V12.874l-.011-1.474-.005-1.243a18.14 18.14 0 0 0-.251-2.703c-.147-.894-.43-1.76-.838-2.569-.836-1.624-2.161-2.946-3.789-3.78a9.18 9.18 0 0 0-2.584-.846c-.895-.149-1.8-.229-2.707-.239l-1.248-.017L149.099 0z" fill="#a6a6a6"/><path d="M11.432 52.819c-.412 0-.815-.005-1.224-.014-.848-.011-1.694-.085-2.53-.22a7.98 7.98 0 0 1-2.243-.74c-.7-.353-1.339-.817-1.891-1.372-.561-.549-1.027-1.186-1.382-1.885a7.71 7.71 0 0 1-.735-2.237 16.71 16.71 0 0 1-.225-2.531l-.02-1.233V11.4l.02-1.208c.01-.847.085-1.692.224-2.527.129-.781.377-1.538.736-2.244.353-.699.817-1.336 1.374-1.887.557-.556 1.197-1.022 1.898-1.38a7.9 7.9 0 0 1 2.238-.734c.84-.137 1.688-.211 2.539-.221l1.222-.016H150.56l1.236.017c.843.01 1.684.083 2.516.219a8.05 8.05 0 0 1 2.262.74 7.56 7.56 0 0 1 3.269 3.267 7.77 7.77 0 0 1 .725 2.226 17.41 17.41 0 0 1 .235 2.548l.004 1.202.011 1.474v28.254l-.011 1.452-.005 1.255a17.2 17.2 0 0 1-.231 2.502 7.76 7.76 0 0 1-.731 2.255c-.357.692-.821 1.323-1.375 1.871-.553.559-1.193 1.025-1.895 1.38-.711.359-1.472.609-2.258.742-.837.136-1.683.21-2.53.22l-1.215.014-1.468.003-137.667-.003z" fill="#000"/><path d="M33.532 27.406a6.66 6.66 0 0 1 .873-3.212 6.69 6.69 0 0 1 2.318-2.394 6.85 6.85 0 0 0-2.356-2.093 6.87 6.87 0 0 0-3.047-.82c-2.273-.238-4.477 1.357-5.636 1.357-1.181 0-2.965-1.333-4.885-1.293a7.21 7.21 0 0 0-3.514 1.046 7.18 7.18 0 0 0-2.541 2.637c-2.618 4.52-.665 11.164 1.843 14.818 1.255 1.789 2.721 3.788 4.64 3.717 1.878-.078 2.579-1.194 4.846-1.194 2.246 0 2.904 1.194 4.861 1.149 2.015-.033 3.285-1.797 4.495-3.603a14.78 14.78 0 0 0 2.056-4.175 6.47 6.47 0 0 1-2.872-2.376 6.44 6.44 0 0 1-1.08-3.563zm-3.699-10.921c1.099-1.315 1.64-3.006 1.509-4.712A6.72 6.72 0 0 0 27 14.013c-.544.618-.961 1.337-1.227 2.115a6.23 6.23 0 0 0-.321 2.423 5.56 5.56 0 0 0 2.429-.531c.759-.358 1.427-.883 1.953-1.535zm27.435 20.154H50.86l-1.539 4.531h-2.714l6.07-16.764h2.82l6.07 16.764h-2.761l-1.538-4.531zm-5.744-2.091h5.079l-2.504-7.354h-.07l-2.505 7.354zm23.15.511c0 3.798-2.039 6.239-5.115 6.239-.779.041-1.554-.138-2.236-.517a4.15 4.15 0 0 1-1.62-1.622h-.058v6.054h-2.516V28.948h2.435v2.033h.046a4.34 4.34 0 0 1 1.652-1.618 4.36 4.36 0 0 1 2.251-.543c3.111 0 5.161 2.452 5.161 6.24zm-2.586 0c0-2.474-1.282-4.101-3.239-4.101-1.922 0-3.215 1.661-3.215 4.101 0 2.463 1.293 4.112 3.215 4.112 1.957 0 3.239-1.615 3.239-4.112zm16.076 0c0 3.798-2.039 6.239-5.115 6.239-.779.041-1.554-.138-2.236-.517a4.15 4.15 0 0 1-1.62-1.622h-.058v6.054h-2.516V28.948h2.435v2.033h.046c.394-.678.965-1.238 1.652-1.618a4.36 4.36 0 0 1 2.251-.543c3.111 0 5.161 2.452 5.161 6.24zm-2.586 0c0-2.474-1.282-4.101-3.239-4.101-1.922 0-3.215 1.661-3.215 4.101 0 2.463 1.293 4.112 3.215 4.112 1.957 0 3.239-1.615 3.239-4.112zm11.502 1.44c.186 1.662 1.806 2.754 4.019 2.754 2.121 0 3.646-1.092 3.646-2.59 0-1.301-.92-2.08-3.099-2.614l-2.178-.523c-3.087-.744-4.52-2.183-4.52-4.519 0-2.892 2.528-4.879 6.117-4.879 3.552 0 5.987 1.987 6.069 4.879h-2.539c-.152-1.673-1.539-2.683-3.566-2.683s-3.413 1.022-3.413 2.509c0 1.185.886 1.883 3.053 2.416l1.852.454c3.45.813 4.883 2.195 4.883 4.647 0 3.136-2.506 5.101-6.49 5.101-3.729 0-6.246-1.918-6.408-4.95h2.576zm15.752-10.444v2.892h2.331v1.987h-2.331v6.738c0 1.047.467 1.535 1.492 1.535a7.86 7.86 0 0 0 .827-.058v1.975a6.89 6.89 0 0 1-1.397.116c-2.482 0-3.449-.929-3.449-3.3v-7.006h-1.783v-1.987h1.783v-2.892h2.527zm3.681 9.004c0-3.846 2.271-6.262 5.813-6.262 3.553 0 5.814 2.416 5.814 6.262 0 3.856-2.249 6.262-5.814 6.262s-5.813-2.406-5.813-6.262zm9.064 0c0-2.638-1.213-4.195-3.251-4.195s-3.25 1.569-3.25 4.195c0 2.649 1.211 4.194 3.25 4.194s3.251-1.545 3.251-4.194zm4.638-6.112h2.399v2.08h.059a2.91 2.91 0 0 1 1.081-1.626c.536-.402 1.196-.608 1.867-.582.29-.001.579.03.862.094v2.347a3.52 3.52 0 0 0-1.131-.152 2.54 2.54 0 0 0-1.068.188 2.53 2.53 0 0 0-.891.616 2.54 2.54 0 0 0-.552.931 2.52 2.52 0 0 0-.11 1.076v7.25h-2.516V28.947zm17.868 8.633c-.339 2.219-2.506 3.742-5.278 3.742-3.566 0-5.779-2.382-5.779-6.204 0-3.834 2.225-6.32 5.673-6.32 3.391 0 5.524 2.323 5.524 6.029v.86h-8.657v.152c-.04.45.017.903.166 1.329s.387.816.699 1.144a3.18 3.18 0 0 0 1.109.755 3.22 3.22 0 0 0 1.323.234c.595.056 1.191-.082 1.701-.392s.907-.775 1.13-1.328h2.389zm-8.505-3.648h6.128a2.94 2.94 0 0 0-.824-2.206 2.95 2.95 0 0 0-.997-.675 2.96 2.96 0 0 0-1.186-.221c-.409-.002-.815.076-1.195.231s-.723.383-1.014.672a3.07 3.07 0 0 0-.676 1.009 3.08 3.08 0 0 0-.236 1.191zM47.962 15.817c0-2.612 1.394-4.226 3.638-4.226.809-.04 1.604.225 2.226.742s1.027 1.249 1.133 2.05H53.71a2.07 2.07 0 0 0-.759-1.194 2.09 2.09 0 0 0-1.351-.431c-1.45 0-2.357 1.178-2.357 3.059s.907 3.053 2.362 3.053a2.03 2.03 0 0 0 1.32-.365 2.02 2.02 0 0 0 .785-1.12h1.249a3.14 3.14 0 0 1-1.157 1.98 3.16 3.16 0 0 1-2.197.671c-2.245 0-3.644-1.613-3.644-4.22zm8.37.983a2.87 2.87 0 0 1 .738-2.211 2.89 2.89 0 0 1 .969-.697 2.9 2.9 0 0 1 1.168-.246 2.91 2.91 0 0 1 1.169.246 2.89 2.89 0 0 1 .969.697 2.87 2.87 0 0 1 .603 1.028 2.88 2.88 0 0 1 .135 1.183 2.87 2.87 0 0 1-.133 1.185 2.88 2.88 0 0 1-.603 1.03 2.89 2.89 0 0 1-2.139.945c-.403 0-.801-.084-1.17-.247a2.89 2.89 0 0 1-.969-.698 2.88 2.88 0 0 1-.603-1.03 2.87 2.87 0 0 1-.133-1.185zm4.512 0c0-1.318-.594-2.088-1.635-2.088s-1.634.771-1.634 2.088c0 1.328.588 2.093 1.634 2.093s1.635-.77 1.635-2.093zm2.851-3.037h1.158v.966h.09a1.82 1.82 0 0 1 .736-.832 1.83 1.83 0 0 1 1.083-.251 1.99 1.99 0 0 1 .871.131 1.98 1.98 0 0 1 .729.494 1.97 1.97 0 0 1 .51 1.636v3.935h-1.203v-3.634c0-.977-.426-1.463-1.315-1.463-.201-.009-.402.025-.589.1a1.4 1.4 0 0 0-.493.337 1.39 1.39 0 0 0-.373 1.104v3.556h-1.203v-6.079zm9.267-.117c1.371 0 2.267.636 2.385 1.708h-1.154c-.111-.446-.549-.731-1.231-.731-.672 0-1.182.318-1.182.792 0 .363.308.592.969.743l1.013.234c1.159.268 1.703.765 1.703 1.659 0 1.144-1.07 1.909-2.525 1.909-1.45 0-2.396-.653-2.503-1.73h1.204c.104.256.291.471.531.608a1.24 1.24 0 0 0 .795.151c.75 0 1.282-.335 1.282-.821 0-.363-.286-.597-.896-.742l-1.063-.246c-1.159-.274-1.696-.792-1.696-1.697 0-1.078.99-1.837 2.368-1.837zm4.021-.899l1.405-1.92h1.411l-1.573 1.92h-1.243zm.124 1.017h1.198v6.079h-1.198v-6.079zm3.072 6.687h1.231c.102.441.611.726 1.422.726 1.002 0 1.596-.475 1.596-1.278v-1.167h-.09c-.189.327-.464.595-.796.775a2.06 2.06 0 0 1-1.085.246c-1.556 0-2.519-1.2-2.519-3.02 0-1.854.973-3.07 2.53-3.07a2.12 2.12 0 0 1 1.108.268 2.11 2.11 0 0 1 .807.803h.095v-.971h1.153v6.129c0 1.39-1.092 2.272-2.816 2.272-1.523 0-2.508-.681-2.636-1.714zm4.272-3.724c0-1.211-.628-1.987-1.653-1.987-1.035 0-1.617.776-1.617 1.987s.582 1.987 1.617 1.987 1.653-.77 1.653-1.987zm8.237 3.115h-1.16v-.966h-.095c-.154.35-.415.644-.745.838a1.83 1.83 0 0 1-1.096.245c-.295.021-.591-.024-.866-.132a1.98 1.98 0 0 1-.724-.492c-.201-.216-.352-.474-.44-.755a1.97 1.97 0 0 1-.071-.871v-3.946h1.205v3.634c0 .982.397 1.452 1.281 1.452.205.019.412-.007.605-.078a1.39 1.39 0 0 0 .513-.33 1.38 1.38 0 0 0 .321-.518c.067-.194.09-.401.066-.605v-3.556h1.204v6.079zm7.071-1.641a2.47 2.47 0 0 1-1.001 1.358 2.48 2.48 0 0 1-1.641.401c-.402.011-.801-.066-1.17-.225a2.77 2.77 0 0 1-.967-.694 2.76 2.76 0 0 1-.68-2.219c-.053-.398-.021-.803.096-1.187a2.8 2.8 0 0 1 .582-1.04 2.81 2.81 0 0 1 .963-.705c.368-.164.767-.247 1.169-.243 1.696 0 2.719 1.156 2.719 3.065v.419h-4.305v.067a1.6 1.6 0 0 0 .082.659c.073.211.19.406.343.57a1.61 1.61 0 0 0 1.198.513c.288.035.579-.017.838-.148a1.46 1.46 0 0 0 .613-.588h1.158zm-4.232-1.959h3.079a1.47 1.47 0 0 0-.082-.602c-.069-.193-.178-.369-.319-.517a1.47 1.47 0 0 0-.502-.344 1.46 1.46 0 0 0-.598-.112 1.56 1.56 0 0 0-1.122.455c-.147.147-.263.321-.342.514a1.55 1.55 0 0 0-.115.606zm5.976-4.852h1.203v8.452h-1.203V11.39zm2.876 5.41a2.86 2.86 0 0 1 .134-1.183c.127-.381.333-.731.603-1.028a2.89 2.89 0 0 1 .969-.697c.368-.163.766-.246 1.169-.246s.8.084 1.168.246a2.89 2.89 0 0 1 .969.697 2.87 2.87 0 0 1 .603 1.028 2.86 2.86 0 0 1 .134 1.183 2.87 2.87 0 0 1-.133 1.185c-.126.381-.332.732-.602 1.03s-.601.535-.97.698-.767.247-1.169.247-.802-.084-1.17-.247-.699-.4-.97-.698-.476-.648-.602-1.03a2.87 2.87 0 0 1-.133-1.185zm4.512 0c0-1.318-.594-2.088-1.636-2.088s-1.634.771-1.634 2.088c0 1.328.589 2.093 1.634 2.093s1.636-.77 1.636-2.093zm11.314 1.401a2.47 2.47 0 0 1-1 1.358 2.48 2.48 0 0 1-1.641.401c-.402.011-.801-.066-1.17-.225a2.77 2.77 0 0 1-1.552-1.729 2.76 2.76 0 0 1-.094-1.184 2.79 2.79 0 0 1 .096-1.187 2.81 2.81 0 0 1 .582-1.04 2.8 2.8 0 0 1 .963-.705 2.82 2.82 0 0 1 1.169-.243c1.696 0 2.72 1.156 2.72 3.065v.419h-4.305v.067a1.59 1.59 0 0 0 .083.659 1.6 1.6 0 0 0 .343.57c.152.164.338.294.544.383a1.62 1.62 0 0 0 .654.13 1.46 1.46 0 0 0 1.45-.736h1.158zm-4.232-1.959h3.079a1.47 1.47 0 0 0-.4-1.119c-.142-.148-.312-.265-.502-.344a1.47 1.47 0 0 0-.598-.112c-.208-.003-.415.036-.608.114a1.56 1.56 0 0 0-.515.341 1.55 1.55 0 0 0-.341.514c-.079.192-.118.398-.115.606zm5.92-2.479h1.158v.966h.09c.153-.347.41-.638.736-.832a1.83 1.83 0 0 1 1.084-.251 1.99 1.99 0 0 1 .871.13c.277.108.526.277.729.494a1.98 1.98 0 0 1 .442.76 1.97 1.97 0 0 1 .068.876v3.935h-1.204v-3.634c0-.977-.425-1.463-1.315-1.463a1.4 1.4 0 0 0-.589.1c-.187.075-.356.19-.494.336a1.39 1.39 0 0 0-.373 1.104v3.556h-1.203v-6.079zm15.5 4.438c-.163.556-.517 1.036-1 1.358a2.48 2.48 0 0 1-1.641.401c-.402.011-.801-.066-1.17-.225s-.698-.396-.966-.694a2.75 2.75 0 0 1-.585-1.035 2.76 2.76 0 0 1-.095-1.184 2.79 2.79 0 0 1 .096-1.187 2.81 2.81 0 0 1 .583-1.04c.266-.301.594-.542.962-.705a2.82 2.82 0 0 1 1.17-.243c1.696 0 2.719 1.156 2.719 3.065v.419h-4.304v.067a1.6 1.6 0 0 0 .425 1.229 1.62 1.62 0 0 0 .545.383c.207.089.429.133.653.13a1.47 1.47 0 0 0 .838-.148 1.46 1.46 0 0 0 .612-.588h1.158zm-4.232-1.959h3.08a1.47 1.47 0 0 0-.401-1.119c-.141-.148-.312-.265-.502-.344a1.47 1.47 0 0 0-.598-.112 1.56 1.56 0 0 0-.607.115 1.55 1.55 0 0 0-.515.341c-.147.147-.263.321-.342.514a1.57 1.57 0 0 0-.115.606zm5.976-4.852h1.203v8.452h-1.203V11.39z" fill="#fff"/></svg>