<svg xmlns="http://www.w3.org/2000/svg" xmlns:v="https://vecta.io/nano" width="152" height="24" fill="none"><path d="M12 0L8.348 9.391H0l6.913 5.087L4.174 24 12 17.738 19.826 24l-2.741-9.522L24 9.391h-8.348L12 0zm32 0l-3.652 9.391H32l6.913 5.087L36.174 24 44 17.738 51.826 24l-2.741-9.522L56 9.391h-8.348L44 0zm32 0l-3.652 9.391H64l6.913 5.087L68.174 24 76 17.738 83.826 24l-2.741-9.522L88 9.391h-8.348L76 0zm32 0l-3.652 9.391H96l6.913 5.087L100.174 24 108 17.738 115.826 24l-2.74-9.522L120 9.391h-8.348L108 0z" fill="#ff9500"/><mask id="A" maskUnits="userSpaceOnUse" x="128" y="0" width="24" height="24" mask-type="alpha"><path d="M140 0l-3.652 9.391H128l6.913 5.087L132.174 24 140 17.738 147.826 24l-2.74-9.522L152 9.391h-8.348L140 0z" fill="#ff9500"/></mask><g mask="url(#A)"><path d="M140 0l-3.652 9.391H128l6.913 5.087L132.174 24 140 17.738 147.826 24l-2.74-9.522L152 9.391h-8.348L140 0z" fill="#ff9500"/><path fill="#d9d9d9" d="M145-3h10v35h-10z"/></g></svg>