<svg xmlns="http://www.w3.org/2000/svg" xmlns:xlink="http://www.w3.org/1999/xlink" xmlns:v="https://vecta.io/nano" width="198" height="57" fill="none"><mask id="A" maskUnits="userSpaceOnUse" x="0" y="0" width="198" height="57"><path d="M198 0H0V57H198V0Z" fill="#fff"/></mask><g mask="url(#A)"><path d="M190.665 57H7.335C3.301 57 0 53.793 0 49.874V7.126C0 3.207 3.301 0 7.335 0h183.333c4.034 0 7.335 3.207 7.335 7.126v42.751c0 3.919-3.301 7.126-7.335 7.126" fill="#fff"/><path d="M190.665 1.141c3.396 0 6.161 2.686 6.161 5.986v42.751c0 3.3-2.765 5.986-6.161 5.986H7.335c-3.396 0-6.161-2.686-6.161-5.986V7.126c0-3.302 2.762-5.986 6.161-5.986h183.333-.003zm0-1.141H7.335C3.301 0 0 3.207 0 7.126v42.751c0 3.919 3.301 7.126 7.335 7.126h183.333c4.034 0 7.335-3.207 7.335-7.126V7.126C198 3.207 194.699 0 190.665 0zM99.931 30.993c-3.448 0-6.262 2.549-6.262 6.063s2.811 6.06 6.262 6.06 6.262-2.573 6.262-6.06-2.811-6.063-6.262-6.063zm0 9.735c-1.891 0-3.522-1.516-3.522-3.672s1.631-3.675 3.522-3.675 3.519 1.492 3.519 3.675-1.631 3.672-3.519 3.672zM86.27 30.993c-3.448 0-6.262 2.549-6.262 6.063s2.811 6.06 6.262 6.06 6.262-2.573 6.262-6.06-2.814-6.063-6.262-6.063zm0 9.735c-1.888 0-3.519-1.516-3.519-3.672s1.631-3.675 3.519-3.675 3.522 1.492 3.522 3.675-1.631 3.672-3.522 3.672zm-16.248-7.874v2.57h6.332c-.19 1.447-.683 2.501-1.441 3.237-.922.896-2.363 1.882-4.892 1.882-3.899 0-6.948-3.052-6.948-6.84s3.047-6.84 6.948-6.84c2.103 0 3.638.801 4.772 1.834l1.867-1.813c-1.585-1.468-3.687-2.594-6.639-2.594-5.339 0-9.83 4.226-9.83 9.413s4.49 9.413 9.83 9.413c2.881 0 5.054-.92 6.758-2.641 1.747-1.697 2.293-4.086 2.293-6.015 0-.596-.046-1.147-.141-1.605h-8.907-.003zm66.452 1.998c-.521-1.355-2.102-3.856-5.339-3.856s-5.882 2.457-5.882 6.063c0 3.398 2.646 6.06 6.189 6.06 2.859 0 4.511-1.697 5.198-2.686l-2.127-1.379c-.711 1.01-1.677 1.677-3.071 1.677s-2.388-.619-3.025-1.834l8.339-3.353-.282-.688v-.003zm-8.505 2.019c-.07-2.344 1.867-3.535 3.261-3.535 1.088 0 2.011.527 2.317 1.286l-5.575 2.251-.003-.003zm-6.783 5.878h2.74V24.936h-2.74V42.75zm-4.49-10.402h-.095c-.613-.712-1.796-1.355-3.283-1.355-3.12 0-5.977 2.662-5.977 6.084s2.86 6.036 5.977 6.036c1.49 0 2.67-.643 3.283-1.379h.095v.873c0 2.32-1.275 3.559-3.332 3.559-1.676 0-2.718-1.17-3.141-2.156l-2.388.965c.683 1.608 2.504 3.583 5.529 3.583 3.212 0 5.931-1.837 5.931-6.313V31.363h-2.599v.989-.003zm-3.142 8.38c-1.891 0-3.472-1.537-3.472-3.648s1.581-3.696 3.472-3.696 3.332 1.56 3.332 3.696-1.465 3.648-3.332 3.648zm35.76-15.792h-6.556V42.75h2.734v-6.748h3.822c3.034 0 6.013-2.135 6.013-5.533s-2.982-5.533-6.013-5.533zm.07 8.585h-3.892v-6.108h3.892c2.048 0 3.209 1.647 3.209 3.052s-1.161 3.052-3.209 3.052m16.913-2.555c-1.98 0-4.033.849-4.883 2.725l2.431.986c.518-.986 1.487-1.307 2.501-1.307 1.416 0 2.854.825 2.878 2.29v.185c-.496-.274-1.557-.688-2.853-.688-2.618 0-5.284 1.397-5.284 4.011 0 2.385 2.148 3.919 4.551 3.919 1.842 0 2.854-.801 3.491-1.742h.095v1.376h2.642v-6.831c0-3.163-2.427-4.926-5.566-4.926m-.331 9.765c-.898 0-2.148-.435-2.148-1.513 0-1.376 1.557-1.9 2.902-1.9 1.202 0 1.769.253 2.501.596-.211 1.65-1.673 2.817-3.255 2.817zm15.518-9.374l-3.138 7.725h-.095L175 31.351h-2.949l4.883 10.795-2.783 6.004h2.853l7.525-16.798h-3.044.003zm-24.648 11.4h2.737V24.936h-2.737V42.75z" fill="#12100b"/><path d="M30.387 27.68L14.771 43.781c.478 1.757 2.121 3.044 4.073 3.044a4.31 4.31 0 0 0 2.139-.563l.049-.03 17.578-9.854-8.226-8.701.003.003z" fill="#e43629"/><path d="M46.184 24.938l-.015-.009-7.589-4.273-8.548 7.391 8.579 8.332 7.546-4.232c1.324-.697 2.222-2.052 2.222-3.612s-.886-2.901-2.198-3.597" fill="#f9bd00"/><path d="M14.77 13.219c-.095.337-.144.691-.144 1.054v28.454a3.86 3.86 0 0 0 .144 1.054L30.92 28.09 14.767 13.219h.003z" fill="#587dbe"/><path d="M30.5 28.501l8.082-7.85-17.556-9.89a4.31 4.31 0 0 0-2.179-.587c-1.949 0-3.595 1.289-4.077 3.04l15.733 15.286H30.5z" fill="#30a043"/></g><g fill="#12100b"><path d="M61.285 9.839h2.921c.944 0 1.769.185 2.47.557a3.92 3.92 0 0 1 1.621 1.569c.38.673.567 1.444.567 2.311s-.19 1.638-.567 2.311a3.94 3.94 0 0 1-1.621 1.569c-.702.372-1.523.557-2.47.557h-2.921V9.836v.003zm2.881 7.588c1.039 0 1.845-.28 2.418-.837s.861-1.328.861-2.311-.288-1.754-.861-2.311-1.379-.837-2.418-.837h-1.48v6.298h1.48v-.003zm6.523-7.587h1.404v8.877h-1.404V9.84zm4.338 8.43c-.604-.429-1.024-1.033-1.263-1.811l1.327-.521c.135.497.38.902.727 1.215a1.82 1.82 0 0 0 1.263.471c.46 0 .849-.116 1.168-.348s.478-.551.478-.956c0-.372-.141-.679-.42-.923s-.766-.482-1.456-.712l-.573-.2c-.622-.214-1.137-.515-1.551-.899s-.619-.893-.619-1.531c0-.438.123-.843.365-1.215s.582-.664 1.021-.881.935-.322 1.486-.322c.791 0 1.425.188 1.9.563s.8.801.969 1.272l-1.263.521c-.086-.298-.264-.554-.536-.768s-.625-.322-1.06-.322-.769.107-1.061.322-.432.488-.432.819c0 .307.129.56.389.762s.662.396 1.204.578l.589.2c.782.265 1.385.607 1.811 1.03s.638.983.638 1.686c0 .578-.15 1.063-.454 1.456a2.73 2.73 0 0 1-1.162.875c-.472.191-.956.286-1.45.286-.757 0-1.437-.215-2.041-.646h.006zm6.941-8.43h3.139a3.24 3.24 0 0 1 1.499.348c.454.232.815.554 1.085.968s.402.878.402 1.4-.135.989-.402 1.4a2.76 2.76 0 0 1-1.085.968 3.26 3.26 0 0 1-1.499.348h-1.735v3.445h-1.404V9.84zm3.178 4.139c.469 0 .843-.143 1.128-.429s.426-.616.426-.998-.141-.712-.426-.998-.662-.429-1.128-.429h-1.775v2.853h1.775zm6.455 4.315a4.57 4.57 0 0 1-1.704-1.68c-.414-.706-.619-1.486-.619-2.338s.205-1.629.619-2.338a4.57 4.57 0 0 1 1.704-1.68c.723-.414 1.526-.619 2.412-.619s1.686.205 2.406.619 1.284.974 1.698 1.68.619 1.486.619 2.338-.205 1.629-.619 2.338-.978 1.266-1.698 1.68-1.52.619-2.406.619-1.689-.205-2.412-.619zm4.089-1.096a3.13 3.13 0 0 0 1.198-1.191 3.39 3.39 0 0 0 .441-1.73c0-.646-.147-1.221-.441-1.73a3.15 3.15 0 0 0-1.198-1.191c-.506-.286-1.067-.429-1.677-.429s-1.171.143-1.677.429a3.13 3.13 0 0 0-1.198 1.191c-.294.509-.441 1.084-.441 1.73s.147 1.221.441 1.73a3.15 3.15 0 0 0 1.198 1.191c.506.286 1.067.429 1.677.429s1.171-.143 1.677-.429z"/><use xlink:href="#C"/><path d="M110.04 9.84h1.404v8.877h-1.404V9.84zm3.7 0h3.421a3.02 3.02 0 0 1 1.352.31c.417.205.748.488.99.849a2.1 2.1 0 0 1 .364 1.197 1.98 1.98 0 0 1-.337 1.146 2.17 2.17 0 0 1-.901.75v.063c.475.158.855.417 1.137.78s.42.792.42 1.289-.129.92-.389 1.295-.607.67-1.045.881-.917.316-1.435.316h-3.573V9.84h-.004zm3.357 3.731c.426 0 .766-.125 1.02-.378s.383-.542.383-.873-.125-.616-.377-.861-.576-.366-.977-.366h-2.005v2.481h1.953l.003-.003zm.217 3.88c.442 0 .797-.131 1.067-.39s.401-.572.401-.935-.137-.679-.413-.941-.644-.396-1.104-.396h-2.118v2.665h2.17l-.003-.003zm4.72-7.611h1.404v7.588h3.929v1.289h-5.333V9.84zm6.814 0h5.538v1.289h-4.134v2.504h3.727v1.29h-3.727v2.504h4.134v1.289h-5.538V9.84zm10.27 0h5.539v1.289h-4.135v2.504h3.727v1.289h-3.727v2.504h4.135v1.29h-5.539V9.84z"/><use xlink:href="#C" x="46.076"/></g><defs><path id="C" d="M100.545 9.84h1.658l4.135 6.522h.077l-.077-1.712V9.84h1.392v8.877h-1.456l-4.337-6.855h-.077l.077 1.712v5.146h-1.392V9.843 9.84z"/></defs></svg>