<svg xmlns="http://www.w3.org/2000/svg" xmlns:v="https://vecta.io/nano" width="183" height="54" fill="none"><mask id="A" maskUnits="userSpaceOnUse" x="0" y="0" width="183" height="54"><path d="M183 0H.752v54H183V0z" fill="#fff"/></mask><g mask="url(#A)"><path d="M176.249 54H7.504C3.791 54 .752 50.962.752 47.249V6.751C.752 3.038 3.791 0 7.504 0h168.748c3.712 0 6.751 3.038 6.751 6.751v40.501c0 3.713-3.039 6.751-6.751 6.751" fill="#12100b"/><path d="M176.249 1.081a5.68 5.68 0 0 1 5.67 5.671v40.501a5.68 5.68 0 0 1-5.67 5.67H7.504a5.68 5.68 0 0 1-5.671-5.67V6.751c0-3.129 2.542-5.671 5.671-5.671h168.748-.003zm0-1.081H7.504C3.791 0 .752 3.038.752 6.751v40.501c0 3.713 3.038 6.751 6.751 6.751h168.748c3.712 0 6.751-3.038 6.751-6.751V6.751A6.78 6.78 0 0 0 176.249 0z" fill="#afacab"/><path d="M92.734 29.363c-3.174 0-5.764 2.415-5.764 5.744s2.587 5.741 5.764 5.741 5.764-2.437 5.764-5.741-2.587-5.744-5.764-5.744zm0 9.223c-1.741 0-3.242-1.436-3.242-3.479s1.501-3.481 3.242-3.481 3.239 1.413 3.239 3.481-1.501 3.479-3.239 3.479zM80.16 29.363c-3.174 0-5.764 2.415-5.764 5.744s2.587 5.741 5.764 5.741 5.764-2.437 5.764-5.741-2.59-5.744-5.764-5.744zm0 9.223c-1.738 0-3.239-1.436-3.239-3.479s1.501-3.481 3.239-3.481 3.241 1.413 3.241 3.481-1.501 3.479-3.241 3.479zm-14.955-7.459v2.435h5.829c-.175 1.371-.629 2.37-1.326 3.067-.849.849-2.175 1.783-4.503 1.783-3.589 0-6.396-2.892-6.396-6.48s2.804-6.48 6.396-6.48c1.935 0 3.349.759 4.393 1.738l1.718-1.718c-1.459-1.391-3.394-2.457-6.111-2.457-4.914 0-9.048 4.003-9.048 8.918s4.133 8.918 9.048 8.918c2.652 0 4.652-.872 6.221-2.502 1.608-1.608 2.11-3.871 2.11-5.699 0-.564-.042-1.086-.13-1.521h-8.198-.003zm61.166 1.893c-.48-1.284-1.935-3.653-4.914-3.653s-5.414 2.327-5.414 5.744c0 3.219 2.434 5.741 5.696 5.741 2.632 0 4.152-1.608 4.784-2.545L124.565 37c-.654.956-1.543 1.588-2.826 1.588s-2.198-.587-2.785-1.738l7.677-3.177-.26-.652v-.003zm-7.829 1.913c-.065-2.22 1.718-3.349 3.002-3.349 1.002 0 1.851.499 2.133 1.219l-5.132 2.133-.003-.003zm-6.243 5.569h2.522V23.625h-2.522v16.876zm-4.133-9.854h-.087c-.565-.674-1.654-1.284-3.022-1.284-2.872 0-5.501 2.522-5.501 5.764s2.632 5.718 5.501 5.718c1.371 0 2.457-.609 3.022-1.306h.087v.827c0 2.198-1.174 3.371-3.067 3.371-1.543 0-2.502-1.109-2.891-2.043l-2.198.914c.629 1.523 2.305 3.394 5.089 3.394 2.957 0 5.459-1.741 5.459-5.981V29.713h-2.392v.937-.003zm-2.892 7.939c-1.74 0-3.196-1.456-3.196-3.456s1.456-3.501 3.196-3.501 3.067 1.478 3.067 3.501-1.349 3.456-3.067 3.456zm32.915-14.961h-6.035v16.876h2.517v-6.393h3.518c2.793 0 5.535-2.023 5.535-5.242s-2.745-5.242-5.535-5.242zm.065 8.133h-3.583v-5.786h3.583c1.884 0 2.954 1.56 2.954 2.892s-1.07 2.892-2.954 2.892m15.567-2.421c-1.822 0-3.713.804-4.494 2.581l2.237.934c.477-.934 1.368-1.238 2.302-1.238 1.303 0 2.627.781 2.649 2.17v.175c-.457-.26-1.433-.652-2.626-.652-2.41 0-4.864 1.323-4.864 3.8 0 2.26 1.978 3.713 4.189 3.713 1.696 0 2.627-.759 3.214-1.65h.087v1.303h2.432v-6.472c0-2.996-2.234-4.666-5.123-4.666m-.305 9.251c-.826 0-1.978-.412-1.978-1.433 0-1.303 1.434-1.8 2.672-1.8 1.106 0 1.628.24 2.302.564a3.05 3.05 0 0 1-2.996 2.669zm14.284-8.881l-2.889 7.318h-.088l-2.996-7.318h-2.714l4.494 10.227-2.561 5.688h2.626l6.926-15.914H167.8h.003zm-22.688 10.799h2.519V23.625h-2.519v16.876z" fill="#fff"/><path d="M28.721 26.223L14.347 41.477c.44 1.665 1.952 2.883 3.749 2.883a3.88 3.88 0 0 0 1.969-.533l.045-.028 16.18-9.335-7.572-8.244.003.003z" fill="#e43629"/><path d="M43.262 23.624l-.014-.008-6.985-4.048-7.868 7.002 7.896 7.894 6.946-4.009c1.219-.66 2.045-1.944 2.045-3.422s-.815-2.748-2.023-3.408" fill="#f9bd00"/><path d="M14.348 12.523a3.77 3.77 0 0 0-.133.999v26.956c0 .347.045.68.133.999l14.865-14.865-14.868-14.089h.003z" fill="#587dbe"/><path d="M28.825 27.001l7.439-7.437-16.16-9.369a3.88 3.88 0 0 0-2.006-.556 3.89 3.89 0 0 0-3.752 2.88l14.481 14.481h-.003z" fill="#30a043"/></g><path d="M57.162 9.321h2.688c.869 0 1.628.175 2.274.528a3.66 3.66 0 0 1 1.492 1.487c.35.638.522 1.368.522 2.189s-.175 1.552-.522 2.189-.846 1.134-1.492 1.487-1.402.528-2.274.528h-2.688v-8.41.003zm2.652 7.188c.956 0 1.698-.265 2.226-.793s.793-1.258.793-2.189-.265-1.662-.793-2.189-1.27-.793-2.226-.793h-1.363v5.967h1.363v-.003zm6.003-7.189h1.292v8.41h-1.292V9.32zm3.992 7.988c-.556-.406-.942-.979-1.162-1.715l1.222-.494c.124.471.35.855.669 1.151a1.65 1.65 0 0 0 1.162.446c.423 0 .781-.11 1.075-.33s.44-.522.44-.906a1.13 1.13 0 0 0-.386-.875c-.256-.232-.705-.457-1.34-.674l-.527-.189c-.573-.203-1.047-.488-1.428-.852s-.57-.846-.57-1.45c0-.415.113-.798.336-1.151s.536-.629.939-.835.861-.305 1.368-.305c.728 0 1.312.178 1.749.533s.736.759.891 1.205l-1.162.494c-.079-.282-.243-.525-.494-.728s-.575-.305-.976-.305-.708.102-.976.305a.93.93 0 0 0-.398.776c0 .291.118.53.358.722s.609.375 1.109.547l.542.189c.719.251 1.275.575 1.667.976s.587.931.587 1.597c0 .547-.138 1.007-.418 1.38a2.52 2.52 0 0 1-1.069.829 3.45 3.45 0 0 1-1.334.271 3.09 3.09 0 0 1-1.879-.612h.006zm6.39-7.988h2.889c.502 0 .962.11 1.38.33a2.59 2.59 0 0 1 .999.917c.249.392.37.832.37 1.326a2.43 2.43 0 0 1-.37 1.326 2.57 2.57 0 0 1-.999.917 2.93 2.93 0 0 1-1.38.33h-1.597v3.264h-1.292V9.32zm2.925 3.921c.432 0 .776-.135 1.038-.406a1.31 1.31 0 0 0 .392-.945 1.31 1.31 0 0 0-.392-.945c-.262-.271-.609-.406-1.038-.406h-1.633v2.703h1.633zm5.942 4.089a4.26 4.26 0 0 1-1.569-1.591c-.381-.669-.57-1.408-.57-2.215s.189-1.543.57-2.215a4.24 4.24 0 0 1 1.569-1.591 4.29 4.29 0 0 1 2.22-.587c.815 0 1.552.195 2.215.587a4.29 4.29 0 0 1 1.563 1.591c.381.669.57 1.408.57 2.215s-.189 1.543-.57 2.215a4.27 4.27 0 0 1-1.563 1.591c-.663.392-1.399.587-2.215.587s-1.555-.195-2.22-.587zm3.764-1.038a2.93 2.93 0 0 0 1.103-1.128c.268-.482.406-1.027.406-1.639s-.135-1.157-.406-1.639-.638-.858-1.103-1.128-.982-.406-1.543-.406-1.078.135-1.543.406a2.93 2.93 0 0 0-1.103 1.128c-.268.482-.406 1.027-.406 1.639s.135 1.157.406 1.639.638.858 1.103 1.128.982.406 1.543.406 1.078-.135 1.543-.406zm4.468-6.972h1.526l3.806 6.178h.071l-.071-1.622V9.32h1.281v8.41h-1.34l-3.992-6.494h-.071l.071 1.622v4.875h-1.281v-8.41-.003zm8.74 0h1.292v8.41h-1.292V9.32zm3.405 0h3.148a2.71 2.71 0 0 1 1.244.293 2.32 2.32 0 0 1 .912.804 2.03 2.03 0 0 1 .335 1.134c0 .415-.104.776-.31 1.086a2 2 0 0 1-.829.711v.059c.437.149.787.395 1.046.739s.387.751.387 1.222-.119.872-.358 1.227a2.45 2.45 0 0 1-.963.835c-.403.2-.843.299-1.32.299h-3.289V9.32h-.003zm3.089 3.535c.392 0 .705-.118.94-.358s.352-.513.352-.827-.116-.584-.347-.815-.53-.347-.9-.347h-1.845v2.35h1.797l.003-.003zm.2 3.676c.407 0 .734-.124.982-.37a1.21 1.21 0 0 0 .37-.886c0-.344-.127-.643-.381-.892s-.593-.375-1.016-.375h-1.949v2.525h1.997l-.003-.003zm4.346-7.211h1.292v7.188h3.616v1.221h-4.908V9.32zm6.271 0h5.098v1.222h-3.806v2.373h3.431v1.221h-3.431v2.373h3.806v1.221h-5.098V9.32zm9.453 0h5.098v1.222h-3.806v2.373h3.431v1.221h-3.431v2.373h3.806v1.221h-5.098V9.32zm6.906 0h1.527l3.806 6.178h.07l-.07-1.622V9.32h1.28v8.41h-1.34l-3.992-6.494h-.07l.07 1.622v4.875h-1.281v-8.41-.003z" fill="#fff"/></svg>