<svg width="399" height="57" viewBox="0 0 399 57" fill="none" xmlns="http://www.w3.org/2000/svg">
<g clip-path="url(#clip0_446_5873)">
<path d="M306.93 27.7705L291.02 49.3505L285.97 45.5905L296.83 30.7705C296.01 30.9105 295.26 30.9805 294.44 30.9805C286.65 30.9805 280.78 24.2905 280.78 16.7105C280.78 8.31047 287.61 1.48047 296.01 1.48047C304.41 1.48047 311.38 8.10047 311.38 16.3005C311.38 20.5305 309.4 24.4305 306.94 27.7705H306.93ZM296.07 7.69047C291.36 7.69047 287.46 11.5805 287.46 16.3005C287.46 21.0205 291.35 24.9105 296.07 24.9105C300.79 24.9105 304.68 21.0905 304.68 16.3005C304.68 11.5105 300.86 7.69047 296.07 7.69047Z" fill="white"/>
<path d="M330.36 48.5002L332.95 41.3002C332.01 41.9002 330.94 42.2602 329.73 42.2602C324.61 42.2602 322.01 36.1102 321.06 31.8802C320.58 29.6302 320.38 27.3002 320.38 24.9802C320.38 22.5202 320.59 20.0602 321.2 17.6702C322.16 13.6402 324.75 7.70023 329.67 7.70023C334.59 7.70023 337.39 13.8502 338.34 18.0802C338.78 20.1702 338.98 22.3102 339.01 24.4702L343.4 12.2702C340.98 6.46024 336.44 1.49023 329.66 1.49023C321.67 1.49023 316.75 8.59023 314.84 15.6302C313.95 18.7002 313.61 21.8402 313.61 25.0602C313.61 28.2802 314.02 31.8202 314.98 35.0302C317.03 41.8602 321.88 48.5502 329.66 48.5502C329.9 48.5502 330.12 48.5302 330.35 48.5102L330.36 48.5002Z" fill="white"/>
<path d="M348.54 0.240234L326.52 56.1502" stroke="white" stroke-width="1.31" stroke-miterlimit="10"/>
<path d="M261.22 2.42969H243.47V20.1797H261.22V2.42969Z" fill="#D40F14"/>
<path d="M0 3.10969C0 2.69969 0.26 2.42969 0.65 2.42969H3.04C3.43 2.42969 3.69 2.69969 3.69 3.10969V44.6697C3.69 44.9397 3.82 45.0797 4.08 45.0797H25.83C26.22 45.0797 26.48 45.3497 26.48 45.7597V48.0697C26.48 48.4797 26.22 48.7497 25.83 48.7497H0.65C0.26 48.7497 0 48.4797 0 48.0697V3.10969Z" fill="white"/>
<path d="M47.55 38.7401V33.7701C47.55 33.5001 47.42 33.3601 47.16 33.3601H39.78C33.63 33.3601 31.04 35.4701 31.04 39.7701C31.04 44.0701 33.76 46.0401 38.68 46.0401C43.99 46.0401 47.55 43.1801 47.55 38.7501M31.76 21.4401C31.44 21.7101 31.05 21.7101 30.79 21.3701L29.69 19.6701C29.5 19.3301 29.56 18.9901 29.88 18.7201C32.08 16.7401 35.38 15.5801 39.72 15.5801C47.75 15.5801 50.98 18.3701 50.98 26.3501V48.0901C50.98 48.5001 50.72 48.7701 50.33 48.7701H48.26C47.87 48.7701 47.61 48.5001 47.61 48.0901V44.6801H47.55C46.32 47.4101 43.02 49.4501 37.97 49.4501C31.76 49.4501 27.61 46.1801 27.61 39.8401C27.61 33.5001 31.82 30.2301 39.33 30.2301H47.16C47.42 30.2301 47.55 30.1001 47.55 29.8201V26.4801C47.55 21.1601 45.8 18.9901 39.52 18.9901C35.77 18.9901 33.56 19.8801 31.75 21.4401" fill="white"/>
<path d="M56.74 48.7601C56.35 48.7601 56.09 48.4901 56.09 48.0801V16.9401C56.09 16.5301 56.35 16.2601 56.74 16.2601H58.94C59.33 16.2601 59.59 16.5301 59.59 16.9401V21.1001H59.65C60.81 17.9001 63.6 15.5801 67.93 15.5801C70.39 15.5801 72.66 16.4601 74.15 17.8301C74.47 18.0301 74.54 18.3801 74.28 18.7201L72.99 20.6301C72.73 20.9701 72.41 20.9701 72.02 20.7701C70.6 19.8101 69.04 19.1301 67.1 19.1301C61.66 19.1301 59.59 24.1101 59.59 30.1001V48.0901C59.59 48.5001 59.33 48.7701 58.94 48.7701H56.74V48.7601Z" fill="white"/>
<path d="M77.11 48.7601C76.72 48.7601 76.46 48.4901 76.46 48.0801V16.9401C76.46 16.5301 76.72 16.2601 77.11 16.2601H79.31C79.7 16.2601 79.96 16.5301 79.96 16.9401V21.1001H80.02C81.18 17.9001 83.97 15.5801 88.31 15.5801C90.77 15.5801 93.03 16.4601 94.52 17.8301C94.84 18.0301 94.91 18.3801 94.65 18.7201L93.36 20.6301C93.1 20.9701 92.78 20.9701 92.39 20.7701C90.97 19.8101 89.41 19.1301 87.47 19.1301C82.03 19.1301 79.96 24.1101 79.96 30.1001V48.0901C79.96 48.5001 79.7 48.7701 79.31 48.7701H77.11V48.7601Z" fill="white"/>
<path d="M114.94 38.7401V33.7701C114.94 33.5001 114.81 33.3601 114.55 33.3601H107.17C101.02 33.3601 98.43 35.4701 98.43 39.7701C98.43 44.0701 101.15 46.0401 106.07 46.0401C111.38 46.0401 114.94 43.1801 114.94 38.7501M99.15 21.4401C98.83 21.7101 98.44 21.7101 98.18 21.3701L97.08 19.6701C96.89 19.3301 96.95 18.9901 97.27 18.7201C99.47 16.7401 102.77 15.5801 107.11 15.5801C115.14 15.5801 118.37 18.3701 118.37 26.3501V48.0901C118.37 48.5001 118.11 48.7701 117.72 48.7701H115.65C115.26 48.7701 115 48.5001 115 48.0901V44.6801H114.93C113.7 47.4101 110.4 49.4501 105.35 49.4501C99.14 49.4501 94.99 46.1801 94.99 39.8401C94.99 33.5001 99.2 30.2301 106.71 30.2301H114.54C114.8 30.2301 114.93 30.1001 114.93 29.8201V26.4801C114.93 21.1601 113.18 18.9901 106.9 18.9901C103.15 18.9901 100.95 19.8801 99.13 21.4401" fill="white"/>
<path d="M124.06 48.7598C123.67 48.7598 123.41 48.4898 123.41 48.0798V16.9398C123.41 16.5298 123.67 16.2598 124.06 16.2598H126.26C126.65 16.2598 126.91 16.5298 126.91 16.9398V48.0798C126.91 48.4898 126.65 48.7598 126.26 48.7598H124.06Z" fill="white"/>
<path d="M152.83 48.7593C152.44 48.7593 152.18 48.4893 152.18 48.0793V28.8693C152.18 22.3993 149.46 19.1193 144.09 19.1193C139.36 19.1193 135.67 22.5293 135.67 28.1793V48.0793C135.67 48.4893 135.41 48.7593 135.02 48.7593H132.82C132.43 48.7593 132.18 48.4893 132.18 48.0793V16.9393C132.18 16.5293 132.44 16.2593 132.82 16.2593H135.02C135.41 16.2593 135.67 16.5293 135.67 16.9393V20.8193H135.73C137.28 17.6193 140.52 15.5693 144.86 15.5693C151.72 15.5693 155.67 20.0693 155.67 27.9693V48.0693C155.67 48.4793 155.41 48.7493 155.02 48.7493H152.82L152.83 48.7593Z" fill="white"/>
<path d="M169.7 48.7597C169.31 48.7597 169.12 48.4897 168.99 48.0797L154.42 3.37969C154.16 2.76969 154.42 2.42969 154.87 2.42969H157.14C157.72 2.42969 157.92 2.55969 158.11 3.10969L170.86 42.2897H170.99L183.42 3.10969C183.61 2.55969 183.81 2.42969 184.32 2.42969H186.65C187.1 2.42969 187.36 2.76969 187.17 3.37969L172.67 48.0797C172.54 48.4897 172.28 48.7597 171.89 48.7597H169.69H169.7Z" fill="white"/>
<path d="M190.41 48.7598C190.02 48.7598 189.76 48.4898 189.76 48.0798V16.9398C189.76 16.5298 190.02 16.2598 190.41 16.2598H192.61C193 16.2598 193.26 16.5298 193.26 16.9398V48.0798C193.26 48.4898 193 48.7598 192.61 48.7598H190.41Z" fill="white"/>
<path d="M216.56 38.7401V33.7701C216.56 33.5001 216.43 33.3601 216.17 33.3601H208.79C202.64 33.3601 200.05 35.4701 200.05 39.7701C200.05 44.0701 202.77 46.0401 207.69 46.0401C213 46.0401 216.56 43.1801 216.56 38.7501M200.77 21.4401C200.45 21.7101 200.06 21.7101 199.8 21.3701L198.7 19.6701C198.51 19.3301 198.57 18.9901 198.89 18.7201C201.09 16.7401 204.39 15.5801 208.73 15.5801C216.76 15.5801 219.99 18.3701 219.99 26.3501V48.0901C219.99 48.5001 219.73 48.7701 219.34 48.7701H217.27C216.88 48.7701 216.62 48.5001 216.62 48.0901V44.6801H216.56C215.33 47.4101 212.03 49.4501 206.98 49.4501C200.77 49.4501 196.63 46.1801 196.63 39.8401C196.63 33.5001 200.84 30.2301 208.34 30.2301H216.17C216.43 30.2301 216.56 30.1001 216.56 29.8201V26.4801C216.56 21.1601 214.81 18.9901 208.53 18.9901C204.78 18.9901 202.58 19.8801 200.76 21.4401" fill="white"/>
<path d="M231.43 48.9697C226.77 48.9697 225.02 46.7197 225.02 41.3397V3.10969C225.02 2.69969 225.28 2.42969 225.67 2.42969H227.87C228.26 2.42969 228.52 2.69969 228.52 3.10969V41.1997C228.52 44.3997 229.49 45.4297 231.82 45.4297H232.92C233.31 45.4297 233.57 45.6997 233.57 46.1097V48.2897C233.57 48.6997 233.31 48.9697 232.92 48.9697H231.43Z" fill="white"/>
<path d="M355.11 38.0402L353.64 34.6502H347.67L346.12 38.0402H343.84L350.75 23.2002L357.41 38.0402H355.11ZM350.71 27.9302L348.55 32.6602H352.78L350.71 27.9302Z" fill="white"/>
<path d="M360.76 28.2705V38.0505H358.65V23.1405L368.82 33.8005V24.0905H370.93V38.9105L360.76 28.2705ZM366.14 22.6605C365.01 22.6605 364.11 21.7405 363.25 21.7405C362.77 21.7405 362.43 22.3305 362.25 22.7005L361.08 21.7005C361.69 20.8005 362.19 20.0005 363.4 20.0005C364.53 20.0005 365.49 20.9405 366.23 20.9405C366.77 20.9405 367.09 20.4005 367.34 19.9805L368.49 20.9405C368.01 21.9005 367.3 22.6605 366.15 22.6605H366.14Z" fill="white"/>
<path d="M380.36 38.3103C376.34 38.3103 373.07 35.1703 373.07 31.1303C373.07 27.0903 376.34 23.8203 380.4 23.8203C384.46 23.8203 387.64 27.0903 387.64 31.0603C387.64 35.0303 384.35 38.3003 380.35 38.3003L380.36 38.3103ZM380.38 25.7903C377.32 25.7903 375.19 28.1803 375.19 31.1703C375.19 34.1603 377.53 36.3203 380.36 36.3203C383.19 36.3203 385.53 33.9503 385.53 31.0703C385.53 28.1903 383.33 25.7903 380.38 25.7903Z" fill="white"/>
<path d="M393.55 38.3108C390.97 38.3108 389.45 36.6408 389.09 34.1908L391.2 33.7308C391.26 34.2508 391.32 34.8008 391.6 35.2608C392 35.9508 392.84 36.3308 393.61 36.3308C394.95 36.3308 395.91 35.3308 395.91 34.0108C395.91 32.1308 393.96 31.6708 392.56 31.0608C390.99 30.3908 389.71 29.3908 389.71 27.5208C389.71 25.2208 391.76 23.8408 393.9 23.8408C395.66 23.8408 396.81 24.6808 397.67 26.1808L395.95 27.1808C395.45 26.3008 394.95 25.8008 393.88 25.8008C392.88 25.8008 391.85 26.4308 391.85 27.5408C391.85 30.0108 398.03 29.0708 398.03 33.8408C398.03 36.4208 396.13 38.3208 393.55 38.3208V38.3108Z" fill="white"/>
</g>
<defs>
<clipPath id="clip0_446_5873">
<rect width="398.03" height="56.39" fill="white"/>
</clipPath>
</defs>
</svg>
