<?xml version="1.0" encoding="utf-8"?>
<!-- Generator: Adobe Illustrator 21.0.0, SVG Export Plug-In . SVG Version: 6.00 Build 0)  -->
<svg version="1.1" id="Capa_1" xmlns="http://www.w3.org/2000/svg" xmlns:xlink="http://www.w3.org/1999/xlink" x="0px" y="0px"
	 viewBox="0 0 1024 200.2" style="enable-background:new 0 0 1024 200.2;" xml:space="preserve">
<style type="text/css">
	.st0{fill:#CC0033;}
	.st1{fill:#585757;}
</style>
<g>
	<g>
		<rect x="946.1" y="9.8" class="st0" width="68.1" height="68.1"/>
		<path class="st1" d="M10.1,12.4c0-1.4,0.9-2.5,2.5-2.5h9.2c1.5,0,2.5,1.2,2.5,2.5V172c0,1.2,0.6,1.5,1.5,1.5h83.7
			c1.5,0,2.5,1.2,2.5,2.5v9.2c0,1.5-0.9,2.5-2.5,2.5H12.5c-1.8,0-2.5-0.9-2.5-2.5C10.1,185.3,10.1,12.4,10.1,12.4z"/>
		<path class="st1" d="M192.8,149.4v-19c0-1.2-0.6-1.5-1.5-1.5h-28.4c-23.6,0-33.6,8-33.6,24.7c0,15.8,10.4,24.1,29.3,24.1
			C179.2,177.6,192.8,166.6,192.8,149.4 M132.1,82.9c-1.2,1.2-2.8,1.2-3.7-0.3l-4-6.6c-0.9-1.5-0.6-2.5,0.9-3.7
			c8.3-7.5,21.3-12.1,37.7-12.1c30.8,0,43.4,10.7,43.4,41.5v83.4c0,1.5-0.9,2.5-2.5,2.5h-8c-1.5,0-2.5-1.2-2.5-2.5v-13.2h-0.3
			c-4.6,10.4-17.6,18.4-36.9,18.4c-23.9,0-39.7-12.6-39.7-36.9c0-25,16.1-36.9,45.2-36.9h29.9c0.9,0,1.5-0.6,1.5-1.5v-12.9
			c0-20.4-6.6-28.7-30.8-28.7C147.5,73.4,139.1,76.9,132.1,82.9"/>
		<path class="st1" d="M228.1,187.9c-1.5,0-2.5-1.2-2.5-2.5V65.6c0-1.5,0.9-2.5,2.5-2.5h8.3c1.5,0,2.5,1.2,2.5,2.5v16.1h0.3
			c4.6-12.4,15.3-21.3,32-21.3c9.5,0,18.1,3.4,23.9,8.6c1.2,0.9,1.5,2.1,0.6,3.4l-4.9,7.2c-0.9,1.5-2.3,1.5-3.7,0.6
			c-5.5-3.7-11.5-6.4-19-6.4c-21,0-28.7,19.3-28.7,42.3v69.2c0,1.5-0.9,2.5-2.5,2.5H228.1z"/>
		<path class="st1" d="M306.4,187.9c-1.5,0-2.5-1.2-2.5-2.5V65.6c0-1.5,0.9-2.5,2.5-2.5h8.3c1.5,0,2.5,1.2,2.5,2.5v16.1h0.3
			c4.6-12.4,15.3-21.3,32-21.3c9.5,0,18.1,3.4,23.9,8.6c1.2,0.9,1.5,2.1,0.6,3.4l-4.9,7.2c-0.9,1.5-2.3,1.5-3.7,0.6
			c-5.5-3.7-11.5-6.4-19-6.4c-21,0-28.7,19.3-28.7,42.3v69.2c0,1.5-0.9,2.5-2.5,2.5H306.4z"/>
		<path class="st1" d="M452,149.4v-19c0-1.2-0.6-1.5-1.5-1.5h-28.4c-23.6,0-33.6,8-33.6,24.7c0,15.8,10.4,24.1,29.3,24.1
			C438.2,177.6,452,166.6,452,149.4 M391.2,82.9c-1.2,1.2-2.8,1.2-3.7-0.3l-4.3-6.6c-0.9-1.5-0.6-2.5,0.9-3.7
			c8.3-7.5,21.3-12.1,37.7-12.1c30.8,0,43.1,10.7,43.1,41.5v83.4c0,1.5-0.9,2.5-2.5,2.5h-8.1c-1.5,0-2.5-1.2-2.5-2.5v-13.2h-0.3
			c-4.6,10.4-17.6,18.4-36.9,18.4c-23.9,0-39.7-12.6-39.7-36.9c0-25,16.1-36.9,45.2-36.9h30.2c0.9,0,1.5-0.6,1.5-1.5v-12.9
			c0-20.4-6.6-28.7-30.8-28.7C406.4,73.4,398.1,76.9,391.2,82.9"/>
		<path class="st1" d="M487.1,187.9c-1.5,0-2.5-1.2-2.5-2.5V65.6c0-1.5,0.9-2.5,2.5-2.5h8.3c1.5,0,2.5,1.2,2.5,2.5v119.7
			c0,1.5-0.9,2.5-2.5,2.5H487.1z"/>
		<path class="st1" d="M597.5,187.9c-1.5,0-2.5-1.2-2.5-2.5v-73.9c0-24.7-10.4-37.4-31.1-37.4c-18.1,0-32.3,13.2-32.3,34.8v76.5
			c0,1.5-0.9,2.5-2.5,2.5h-8.3c-1.5,0-2.5-1.2-2.5-2.5V65.6c0-1.5,0.9-2.5,2.5-2.5h8.3c1.5,0,2.5,1.2,2.5,2.5v15h0.3
			c6.1-12.4,18.4-20.1,35.1-20.1c26.5,0,41.5,17.3,41.5,47.8v77.1c0,1.5-0.9,2.5-2.5,2.5L597.5,187.9L597.5,187.9z"/>
		<path class="st1" d="M662.7,187.9c-1.5,0-2.3-1.2-2.5-2.5L603.5,13.5c-0.9-2.3,0-3.7,1.8-3.7h8.6c2.3,0,2.8,0.6,3.7,2.5
			l48.9,150.7h0.6L715,12.4c0.9-2.1,1.5-2.5,3.4-2.5h8.9c1.8,0,2.8,1.5,2.1,3.7l-55.6,171.8c-0.6,1.5-1.5,2.5-2.8,2.5H662.7z"/>
		<path class="st1" d="M742,187.9c-1.5,0-2.5-1.2-2.5-2.5V65.6c0-1.5,0.9-2.5,2.5-2.5h8.3c1.5,0,2.5,1.2,2.5,2.5v119.7
			c0,1.5-0.9,2.5-2.5,2.5H742z"/>
		<path class="st1" d="M842.6,149.4v-19c0-1.2-0.6-1.5-1.5-1.5h-28.4c-23.6,0-33.6,8-33.6,24.7c0,15.8,10.4,24.1,29.3,24.1
			C828.9,177.6,842.6,166.6,842.6,149.4 M782,82.9c-1.2,1.2-2.8,1.2-3.7-0.3L774,76c-0.9-1.5-0.6-2.5,0.9-3.7
			c8.3-7.5,21.3-12.1,37.7-12.1c30.8,0,43.4,10.7,43.4,41.5v83.4c0,1.5-0.9,2.5-2.5,2.5h-8c-1.5,0-2.5-1.2-2.5-2.5v-13.2h-0.3
			c-4.6,10.4-17.6,18.4-36.9,18.4c-23.9,0-39.7-12.6-39.7-36.9c0-25,16.1-36.9,45.2-36.9h30.2c0.9,0,1.5-0.6,1.5-1.5v-12.9
			c0-20.4-6.6-28.7-30.8-28.7C797.2,73.4,788.9,76.9,782,82.9"/>
		<path class="st1" d="M899.7,188.8c-17.8,0-24.7-8.6-24.7-29.3V12.4c0-1.5,0.9-2.5,2.5-2.5h8.3c1.5,0,2.5,1.2,2.5,2.5v146.5
			c0,12.4,3.7,16.1,12.6,16.1h4.3c1.5,0,2.5,1.2,2.5,2.5v8.3c0,1.5-0.9,2.5-2.5,2.5L899.7,188.8L899.7,188.8z"/>
	</g>
</g>
</svg>
