<svg width="137" height="42" viewBox="0 0 137 42" fill="none" xmlns="http://www.w3.org/2000/svg">
<g clip-path="url(#clip0_633_7288)">
<path d="M126.09 0.0001365H10.916C10.4962 0.0001365 10.0814 0.0001365 9.66266 0.00223649C9.31216 0.00433649 8.96445 0.010437 8.61058 0.0155714C7.84181 0.0238683 7.07486 0.0858963 6.31637 0.201116C5.55895 0.318845 4.82526 0.540796 4.14011 0.859464C3.45579 1.18083 2.83052 1.59841 2.28696 2.09705C1.74055 2.5943 1.28508 3.16904 0.938051 3.79919C0.590067 4.42809 0.348774 5.10201 0.222506 5.79767C0.0950369 6.49246 0.0264447 7.19526 0.0173448 7.89977C0.0067204 8.22169 0.00559842 8.54469 0 8.86666V33.1366C0.00559842 33.4626 0.0067204 33.7784 0.0173448 34.1045C0.0264475 34.809 0.0950397 35.5118 0.222506 36.2065C0.348426 36.9026 0.589733 37.5769 0.938051 38.206C1.28492 38.8342 1.74046 39.4066 2.28696 39.9011C2.82846 40.4019 3.45414 40.8198 4.14011 41.1387C4.82525 41.4582 5.55887 41.6815 6.31637 41.801C7.07498 41.9153 7.84186 41.9774 8.61058 41.9867C8.96445 41.9938 9.31216 41.9979 9.66266 41.9979C10.0814 42 10.4962 42 10.916 42H126.09C126.502 42 126.92 42 127.331 41.9979C127.68 41.9979 128.038 41.9938 128.387 41.9867C129.154 41.9779 129.919 41.9158 130.676 41.801C131.436 41.6806 132.173 41.4574 132.861 41.1387C133.546 40.8196 134.172 40.4017 134.713 39.9011C135.258 39.4046 135.714 38.8326 136.065 38.206C136.411 37.5765 136.65 36.9022 136.774 36.2065C136.902 35.5117 136.973 34.8091 136.987 34.1045C136.991 33.7784 136.991 33.4626 136.991 33.1366C137 32.7551 137 32.3757 137 31.9881V10.013C137 9.62852 137 9.24708 136.991 8.86666C136.991 8.54469 136.991 8.22169 136.987 7.89972C136.973 7.19516 136.902 6.49251 136.774 5.79763C136.65 5.10237 136.411 4.4285 136.065 3.79915C135.359 2.53608 134.238 1.50796 132.861 0.85937C132.173 0.54148 131.436 0.319588 130.676 0.201022C129.919 0.0852941 129.154 0.0232446 128.387 0.0154244C128.038 0.0103005 127.68 0.00414749 127.331 0.00209999C126.92 0 126.502 0.0001365 126.09 0.0001365Z" fill="#A6A6A6"/>
<path d="M9.92918 41.3619C9.5819 41.3619 9.24302 41.3577 8.89847 41.3505C8.18471 41.3418 7.47261 41.2837 6.76803 41.1768C6.11104 41.0711 5.47459 40.8745 4.87968 40.5935C4.29022 40.3148 3.75259 39.9493 3.28738 39.5111C2.81543 39.078 2.42252 38.5758 2.1242 38.0242C1.8226 37.4691 1.61387 36.874 1.50529 36.2598C1.38803 35.5998 1.32459 34.9324 1.31551 34.2634C1.30829 34.0389 1.29883 33.2913 1.29883 33.2913V8.69587C1.29883 8.69587 1.3089 7.95972 1.31557 7.74344C1.32426 7.07553 1.38734 6.40921 1.50424 5.75023C1.61302 5.13432 1.82191 4.53755 2.12368 3.98058C2.4209 3.42939 2.81163 2.92676 3.28073 2.49217C3.74931 2.05344 4.28866 1.6861 4.87912 1.40353C5.47266 1.12339 6.10791 0.928164 6.76357 0.824395C7.47047 0.716398 8.18504 0.658009 8.90127 0.649719L9.92974 0.636719H127.065L128.106 0.650241C128.816 0.658119 129.524 0.715986 130.224 0.823352C130.886 0.928423 131.528 1.12501 132.129 1.40665C133.312 1.97611 134.274 2.87704 134.881 3.98318C135.178 4.5363 135.384 5.1282 135.491 5.7388C135.61 6.40318 135.676 7.07474 135.689 7.74813C135.693 8.04965 135.693 8.37354 135.693 8.69587C135.702 9.09513 135.702 9.47516 135.702 9.85831V32.1413C135.702 32.5281 135.702 32.9055 135.693 33.286C135.693 33.6323 135.693 33.9495 135.688 34.2759C135.675 34.9373 135.61 35.5969 135.493 36.2493C135.387 36.868 135.179 37.4677 134.878 38.0274C134.578 38.573 134.187 39.0709 133.72 39.5028C133.255 39.9433 132.716 40.3109 132.125 40.5914C131.527 40.8747 130.886 41.072 130.224 41.1768C129.52 41.2843 128.807 41.3424 128.094 41.3505C127.76 41.3577 127.41 41.3619 127.071 41.3619L125.835 41.364L9.92918 41.3619Z" fill="black"/>
<path d="M26.3412 21.3159C26.3526 20.4395 26.5884 19.5802 27.0266 18.818C27.4648 18.0557 28.0911 17.4153 28.8473 16.9563C28.3669 16.2789 27.7331 15.7214 26.9963 15.3281C26.2595 14.9348 25.44 14.7166 24.6028 14.6907C22.817 14.5056 21.0857 15.7458 20.1756 15.7458C19.248 15.7458 17.8469 14.7091 16.3381 14.7397C15.3621 14.7709 14.411 15.0511 13.5774 15.553C12.7437 16.055 12.056 16.7616 11.5812 17.604C9.52441 21.1198 11.0586 26.2869 13.0288 29.1289C14.0145 30.5205 15.1666 32.075 16.674 32.0198C18.1491 31.9594 18.7001 31.0911 20.4807 31.0911C22.2447 31.0911 22.7616 32.0198 24.2996 31.9848C25.8825 31.9594 26.8798 30.587 27.8309 29.1822C28.5392 28.1906 29.0842 27.0947 29.4457 25.9351C28.5261 25.551 27.7414 24.9083 27.1893 24.0868C26.6372 23.2654 26.3423 22.3017 26.3412 21.3159Z" fill="white"/>
<path d="M23.4361 12.8214C24.2991 11.7985 24.7243 10.4837 24.6213 9.15625C23.3028 9.29298 22.0848 9.91517 21.2101 10.8988C20.7825 11.3794 20.4549 11.9384 20.2462 12.5441C20.0375 13.1497 19.9517 13.7899 19.9938 14.4283C20.6533 14.435 21.3058 14.2939 21.902 14.0155C22.4983 13.7372 23.0228 13.3289 23.4361 12.8214Z" fill="white"/>
<path d="M44.9872 28.497H39.9533L38.7445 32.0213H36.6123L41.3803 18.9824H43.5956L48.3636 32.0213H46.1951L44.9872 28.497ZM40.4747 26.8708H44.4649L42.4979 21.1511H42.4428L40.4747 26.8708Z" fill="white"/>
<path d="M58.6606 27.269C58.6606 30.2232 57.0591 32.1211 54.6424 32.1211C54.0302 32.1528 53.4214 32.0135 52.8856 31.7194C52.3498 31.4252 51.9088 30.9881 51.6129 30.4579H51.5672V35.1665H49.5908V22.5153H51.5039V24.0964H51.5402C51.8497 23.5688 52.2982 23.1339 52.838 22.838C53.3779 22.5421 53.9889 22.3962 54.606 22.4158C57.0497 22.4158 58.6606 24.323 58.6606 27.269ZM56.6292 27.269C56.6292 25.3443 55.6217 24.079 54.0847 24.079C52.5746 24.079 51.5589 25.371 51.5589 27.269C51.5589 29.1844 52.5746 30.4672 54.0847 30.4672C55.6218 30.4672 56.6292 29.2111 56.6292 27.269Z" fill="white"/>
<path d="M69.2582 27.269C69.2582 30.2231 67.6568 32.1211 65.2401 32.1211C64.6279 32.1528 64.019 32.0135 63.4832 31.7194C62.9475 31.4252 62.5064 30.9881 62.2106 30.4579H62.1649V35.1665H60.1885V22.5153H62.1015V24.0964H62.1378C62.4473 23.5688 62.8958 23.1339 63.4356 22.838C63.9755 22.5421 64.5865 22.3962 65.2037 22.4158C67.6474 22.4158 69.2582 24.323 69.2582 27.269ZM67.2268 27.269C67.2268 25.3443 66.2194 24.079 64.6823 24.079C63.1723 24.079 62.1566 25.371 62.1566 27.269C62.1566 29.1844 63.1723 30.4672 64.6823 30.4672C66.2194 30.4672 67.2268 29.2111 67.2268 27.269Z" fill="white"/>
<path d="M76.2624 28.389C76.4088 29.682 77.6811 30.531 79.4196 30.531C81.0855 30.531 82.284 29.6819 82.284 28.5161C82.284 27.504 81.5611 26.898 79.8496 26.4827L78.138 26.0756C75.713 25.4973 74.5872 24.3776 74.5872 22.5606C74.5872 20.3109 76.5729 18.7656 79.3926 18.7656C82.1832 18.7656 84.0962 20.3109 84.1606 22.5606H82.1655C82.0461 21.2594 80.9567 20.4739 79.3645 20.4739C77.7724 20.4739 76.683 21.2686 76.683 22.4253C76.683 23.3471 77.3788 23.8895 79.081 24.3048L80.536 24.6575C83.2456 25.2902 84.3714 26.3648 84.3714 28.272C84.3714 30.7114 82.4034 32.2392 79.2731 32.2392C76.3444 32.2392 74.367 30.7473 74.2393 28.3889L76.2624 28.389Z" fill="white"/>
<path d="M88.6367 20.2659V22.5156H90.4676V24.0608H88.6367V29.3016C88.6367 30.1158 89.0033 30.4952 89.8082 30.4952C90.0255 30.4914 90.2425 30.4764 90.4583 30.45V31.9861C90.0964 32.0528 89.7286 32.083 89.3605 32.0763C87.4112 32.0763 86.6509 31.3534 86.6509 29.5097V24.0608H85.251V22.5156H86.6509V20.2659H88.6367Z" fill="white"/>
<path d="M91.5283 27.2693C91.5283 24.2782 93.3126 22.3987 96.0949 22.3987C98.8865 22.3987 100.662 24.2782 100.662 27.2693C100.662 30.2686 98.8958 32.1399 96.0949 32.1399C93.2949 32.1399 91.5283 30.2685 91.5283 27.2693ZM98.6487 27.2693C98.6487 25.2175 97.6963 24.0065 96.0948 24.0065C94.4934 24.0065 93.5421 25.2267 93.5421 27.2693C93.5421 29.3293 94.4934 30.5311 96.0948 30.5311C97.6963 30.5311 98.6487 29.3293 98.6487 27.2693Z" fill="white"/>
<path d="M102.291 22.5152H104.176V24.1332H104.222C104.349 23.6279 104.649 23.1813 105.071 22.8685C105.493 22.5557 106.011 22.3958 106.538 22.4157C106.765 22.4149 106.993 22.4394 107.215 22.4885V24.3137C106.927 24.227 106.627 24.1871 106.327 24.1958C106.04 24.1843 105.753 24.2343 105.488 24.3423C105.222 24.4503 104.983 24.6139 104.788 24.8216C104.592 25.0294 104.444 25.2766 104.354 25.5461C104.265 25.8156 104.235 26.1011 104.267 26.383V32.0216H102.291L102.291 22.5152Z" fill="white"/>
<path d="M116.328 29.2298C116.062 30.9556 114.36 32.1399 112.182 32.1399C109.381 32.1399 107.643 30.287 107.643 27.3144C107.643 24.3326 109.39 22.3987 112.099 22.3987C114.763 22.3987 116.438 24.2054 116.438 27.0878V27.7563H109.638V27.8743C109.606 28.2241 109.651 28.5766 109.768 28.9082C109.885 29.2398 110.072 29.5431 110.317 29.7977C110.562 30.0524 110.859 30.2527 111.189 30.3853C111.518 30.518 111.872 30.5799 112.228 30.5669C112.695 30.6101 113.164 30.5033 113.564 30.2624C113.965 30.0215 114.276 29.6594 114.451 29.2298L116.328 29.2298ZM109.647 26.3926H114.461C114.478 26.078 114.43 25.7632 114.319 25.4679C114.207 25.1727 114.036 24.9033 113.814 24.6767C113.592 24.4502 113.325 24.2713 113.03 24.1514C112.735 24.0315 112.418 23.9731 112.099 23.9798C111.777 23.9779 111.458 24.039 111.16 24.1595C110.863 24.2799 110.592 24.4575 110.364 24.6818C110.136 24.9061 109.955 25.1728 109.832 25.4664C109.709 25.76 109.646 26.0748 109.647 26.3926Z" fill="white"/>
<path d="M37.6768 12.3014C37.6768 10.2696 38.7714 9.01454 40.5349 9.01454C41.1705 8.98346 41.7946 9.18948 42.2835 9.59171C42.7724 9.99394 43.0902 10.563 43.1738 11.1858H42.1924C42.1101 10.8167 41.899 10.4879 41.596 10.2569C41.293 10.0259 40.9174 9.90734 40.5349 9.92201C39.3956 9.92201 38.6831 10.8382 38.6831 12.3014C38.6831 13.7606 39.3956 14.6762 40.539 14.6762C40.9076 14.7035 41.2742 14.6031 41.5759 14.3924C41.8777 14.1817 42.0957 13.8738 42.1924 13.5216H43.1738C43.0781 14.1297 42.7537 14.6797 42.2653 15.0619C41.7769 15.4441 41.1604 15.6305 40.539 15.5837C38.7756 15.5837 37.6768 14.3291 37.6768 12.3014Z" fill="white"/>
<path d="M44.2519 13.0665C44.2218 12.7558 44.2578 12.4423 44.3576 12.1461C44.4574 11.8499 44.6188 11.5776 44.8314 11.3466C45.044 11.1157 45.3032 10.9311 45.5923 10.8048C45.8814 10.6785 46.1941 10.6133 46.5102 10.6133C46.8264 10.6133 47.139 10.6785 47.4281 10.8048C47.7172 10.9311 47.9764 11.1157 48.1891 11.3466C48.4017 11.5776 48.5631 11.8499 48.6629 12.1461C48.7627 12.4423 48.7987 12.7558 48.7686 13.0665C48.7993 13.3775 48.7637 13.6914 48.6642 13.9881C48.5646 14.2847 48.4033 14.5576 48.1906 14.789C47.9779 15.0204 47.7186 15.2054 47.4292 15.3319C47.1398 15.4585 46.8268 15.5239 46.5102 15.5239C46.1937 15.5239 45.8807 15.4585 45.5913 15.3319C45.3019 15.2054 45.0425 15.0204 44.8298 14.789C44.6171 14.5576 44.4559 14.2847 44.3563 13.9881C44.2568 13.6914 44.2212 13.3775 44.2519 13.0665ZM47.7965 13.0665C47.7965 12.0416 47.3302 11.4423 46.5118 11.4423C45.6903 11.4423 45.2282 12.0416 45.2282 13.0665C45.2282 14.0996 45.6903 14.6943 46.5118 14.6943C47.3302 14.6943 47.7965 14.0955 47.7965 13.0665Z" fill="white"/>
<path d="M50.0361 10.7053H50.9459V11.4564H51.0165C51.1363 11.1866 51.3384 10.9605 51.5946 10.8095C51.8507 10.6585 52.1482 10.5902 52.4456 10.614C52.6786 10.5967 52.9126 10.6314 53.1301 10.7155C53.3477 10.7996 53.5434 10.931 53.7026 11.0999C53.8617 11.2688 53.9804 11.4708 54.0497 11.6911C54.1191 11.9115 54.1373 12.1444 54.1031 12.3726V15.4333H53.158V12.6069C53.158 11.8471 52.8236 11.4692 52.1247 11.4692C51.9665 11.4619 51.8086 11.4885 51.6617 11.5471C51.5149 11.6058 51.3827 11.695 51.2741 11.8088C51.1654 11.9226 51.083 12.0583 51.0325 12.2065C50.982 12.3547 50.9645 12.5119 50.9812 12.6674V15.4334H50.0361V10.7053Z" fill="white"/>
<path d="M57.3157 10.6133C58.3927 10.6133 59.0968 11.108 59.1892 11.9417H58.2826C58.1954 11.5946 57.8516 11.3731 57.3157 11.3731C56.7881 11.3731 56.3873 11.6202 56.3873 11.9894C56.3873 12.2718 56.6292 12.4498 57.1485 12.5672L57.944 12.7492C58.8548 12.9578 59.2817 13.3444 59.2817 14.0391C59.2817 14.9292 58.4415 15.5239 57.298 15.5239C56.1587 15.5239 55.4162 15.0158 55.332 14.1781H56.2782C56.3597 14.3774 56.5067 14.544 56.6956 14.651C56.8845 14.758 57.1044 14.7993 57.3199 14.7682C57.9087 14.7682 58.3273 14.5078 58.3273 14.1298C58.3273 13.8479 58.1029 13.6653 57.6231 13.5526L56.7881 13.3613C55.8773 13.1485 55.4557 12.7451 55.4557 12.0416C55.4556 11.2034 56.2335 10.6133 57.3157 10.6133Z" fill="white"/>
<path d="M60.4746 9.9134L61.5786 8.41992H62.6867L61.4509 9.9134H60.4746ZM60.5722 10.704H61.5132V15.4321H60.5722V10.704Z" fill="white"/>
<path d="M62.9859 15.9057H63.9528C64.0328 16.2487 64.4326 16.4702 65.0703 16.4702C65.8575 16.4702 66.3238 16.1011 66.3238 15.4761V14.5686H66.2532C66.105 14.8226 65.8885 15.0313 65.6277 15.1714C65.3668 15.3116 65.0719 15.3778 64.7753 15.3628C63.5529 15.3628 62.7969 14.4297 62.7969 13.0141C62.7969 11.5725 63.5613 10.626 64.7847 10.626C65.0886 10.6155 65.3897 10.6878 65.6549 10.8348C65.9201 10.9818 66.1393 11.198 66.2885 11.4596H66.3633V10.7044H67.2689V15.4714C67.2689 16.5527 66.411 17.2387 65.0568 17.2387C63.8604 17.2388 63.0866 16.7091 62.9859 15.9057ZM66.3415 13.0095C66.3415 12.0677 65.8482 11.4642 65.0433 11.4642C64.2301 11.4642 63.7731 12.0677 63.7731 13.0095C63.7731 13.9518 64.2301 14.5553 65.0433 14.5553C65.8534 14.5553 66.3415 13.9565 66.3415 13.0095Z" fill="white"/>
<path d="M72.8117 15.4332H71.9009V14.6821H71.8261C71.705 14.9546 71.5001 15.1827 71.2405 15.3339C70.9808 15.485 70.6795 15.5517 70.3794 15.5244C70.1477 15.5407 69.9154 15.5055 69.6993 15.4215C69.4833 15.3375 69.289 15.2067 69.1308 15.0389C68.9726 14.8711 68.8544 14.6705 68.785 14.4517C68.7156 14.2329 68.6967 14.0015 68.7296 13.7746V10.7051H69.6763V13.5316C69.6763 14.2955 69.9879 14.6605 70.6826 14.6605C70.8437 14.6756 71.0062 14.655 71.1582 14.6002C71.3102 14.5454 71.4479 14.4578 71.5612 14.3438C71.6746 14.2298 71.7607 14.0922 71.8134 13.9411C71.866 13.7901 71.8838 13.6293 71.8655 13.4706V10.7051H72.8117V15.4332Z" fill="white"/>
<path d="M78.3672 14.1561C78.2388 14.5882 77.9605 14.962 77.5812 15.212C77.2019 15.4621 76.7456 15.5725 76.2921 15.524C75.9766 15.5322 75.6631 15.4725 75.3733 15.3491C75.0835 15.2257 74.8244 15.0415 74.6139 14.8093C74.4034 14.5771 74.2466 14.3025 74.1544 14.0045C74.0623 13.7065 74.0368 13.3922 74.08 13.0835C74.038 12.7739 74.0638 12.459 74.1558 12.1601C74.2478 11.8612 74.4037 11.5853 74.6131 11.351C74.8225 11.1168 75.0804 10.9297 75.3693 10.8025C75.6583 10.6752 75.9716 10.6107 76.288 10.6134C77.6204 10.6134 78.4243 11.5122 78.4243 12.9969V13.3225H75.0427V13.3748C75.0279 13.5483 75.05 13.7229 75.1076 13.8875C75.1651 14.0521 75.2569 14.203 75.3769 14.3305C75.497 14.458 75.6428 14.5594 75.8048 14.6281C75.9669 14.6967 76.1417 14.7312 76.3181 14.7293C76.5441 14.7561 76.7732 14.7159 76.976 14.6138C77.1789 14.5117 77.3464 14.3524 77.4574 14.1561L78.3672 14.1561ZM75.0427 12.6324H77.4615C77.4734 12.4737 77.4516 12.3143 77.3974 12.1644C77.3432 12.0146 77.2578 11.8776 77.1468 11.7622C77.0358 11.6469 76.9016 11.5557 76.7528 11.4946C76.604 11.4336 76.4439 11.4039 76.2827 11.4075C76.1193 11.4055 75.9571 11.4358 75.8057 11.4966C75.6542 11.5575 75.5167 11.6476 75.4011 11.7618C75.2856 11.8759 75.1943 12.0118 75.1328 12.1613C75.0712 12.3108 75.0406 12.471 75.0427 12.6324Z" fill="white"/>
<path d="M79.7363 8.85938H80.6814V15.4332H79.7363V8.85938Z" fill="white"/>
<path d="M81.9951 13.0665C81.965 12.7558 82.001 12.4423 82.1007 12.1461C82.2005 11.8499 82.3619 11.5776 82.5746 11.3466C82.7872 11.1157 83.0464 10.9311 83.3355 10.8048C83.6246 10.6785 83.9373 10.6133 84.2534 10.6133C84.5695 10.6133 84.8822 10.6785 85.1713 10.8048C85.4604 10.9311 85.7196 11.1157 85.9322 11.3466C86.1449 11.5776 86.3063 11.8499 86.4061 12.1461C86.5059 12.4423 86.5419 12.7558 86.5117 13.0665C86.5424 13.3775 86.5069 13.6914 86.4073 13.9881C86.3078 14.2847 86.1465 14.5576 85.9338 14.789C85.7211 15.0204 85.4617 15.2054 85.1723 15.3319C84.8829 15.4585 84.5699 15.5239 84.2534 15.5239C83.9369 15.5239 83.6239 15.4585 83.3345 15.3319C83.0451 15.2054 82.7857 15.0204 82.573 14.789C82.3603 14.5576 82.199 14.2847 82.0995 13.9881C81.9999 13.6914 81.9644 13.3775 81.9951 13.0665ZM85.5396 13.0665C85.5396 12.0416 85.0733 11.4423 84.255 11.4423C83.4335 11.4423 82.9713 12.0416 82.9713 13.0665C82.9713 14.0996 83.4335 14.6943 84.255 14.6943C85.0734 14.6943 85.5396 14.0955 85.5396 13.0665Z" fill="white"/>
<path d="M94.4287 14.1561C94.3003 14.5882 94.0221 14.962 93.6427 15.212C93.2634 15.4621 92.8071 15.5725 92.3536 15.524C92.0381 15.5322 91.7246 15.4725 91.4348 15.3491C91.145 15.2257 90.8859 15.0415 90.6754 14.8093C90.4649 14.5771 90.3082 14.3025 90.216 14.0045C90.1238 13.7065 90.0984 13.3922 90.1415 13.0835C90.0995 12.7739 90.1254 12.459 90.2173 12.1601C90.3093 11.8612 90.4653 11.5853 90.6746 11.351C90.884 11.1168 91.1419 10.9297 91.4308 10.8025C91.7198 10.6752 92.0331 10.6107 92.3495 10.6134C93.682 10.6134 94.4858 11.5122 94.4858 12.9969V13.3225H91.1043V13.3748C91.0895 13.5483 91.1116 13.7229 91.1691 13.8875C91.2267 14.0521 91.3184 14.203 91.4385 14.3305C91.5586 14.458 91.7043 14.5594 91.8664 14.6281C92.0285 14.6967 92.2033 14.7312 92.3796 14.7293C92.6057 14.7561 92.8347 14.7159 93.0376 14.6138C93.2405 14.5117 93.408 14.3524 93.5189 14.1561L94.4287 14.1561ZM91.1042 12.6324H93.5231C93.535 12.4737 93.5132 12.3143 93.459 12.1644C93.4048 12.0146 93.3195 11.8776 93.2084 11.7622C93.0974 11.6469 92.9632 11.5557 92.8144 11.4946C92.6656 11.4336 92.5055 11.4039 92.3443 11.4075C92.1809 11.4055 92.0187 11.4358 91.8672 11.4966C91.7158 11.5575 91.5783 11.6476 91.4627 11.7618C91.3471 11.8759 91.2559 12.0118 91.1943 12.1613C91.1328 12.3108 91.1021 12.471 91.1042 12.6324Z" fill="white"/>
<path d="M95.7539 10.7053H96.6637V11.4564H96.7343C96.8541 11.1866 97.0562 10.9605 97.3123 10.8095C97.5685 10.6585 97.866 10.5902 98.1634 10.614C98.3964 10.5967 98.6303 10.6314 98.8479 10.7155C99.0655 10.7996 99.2611 10.931 99.4203 11.0999C99.5795 11.2688 99.6982 11.4708 99.7675 11.6911C99.8369 11.9115 99.8551 12.1444 99.8209 12.3726V15.4333H98.8758V12.6069C98.8758 11.8471 98.5414 11.4692 97.8424 11.4692C97.6842 11.4619 97.5263 11.4885 97.3795 11.5471C97.2327 11.6058 97.1004 11.695 96.9918 11.8088C96.8832 11.9226 96.8008 12.0583 96.7503 12.2065C96.6997 12.3547 96.6822 12.5119 96.699 12.6674V15.4334H95.7539V10.7053Z" fill="white"/>
<path d="M107.931 14.1561C107.802 14.5882 107.524 14.962 107.145 15.212C106.765 15.4621 106.309 15.5725 105.856 15.524C105.54 15.5322 105.227 15.4725 104.937 15.3491C104.647 15.2257 104.388 15.0415 104.177 14.8093C103.967 14.5771 103.81 14.3025 103.718 14.0045C103.626 13.7065 103.6 13.3922 103.643 13.0835C103.601 12.7739 103.627 12.459 103.719 12.1601C103.811 11.8612 103.967 11.5853 104.177 11.351C104.386 11.1168 104.644 10.9297 104.933 10.8025C105.222 10.6752 105.535 10.6107 105.851 10.6134C107.184 10.6134 107.988 11.5122 107.988 12.9969V13.3225H104.606V13.3748C104.591 13.5483 104.614 13.7229 104.671 13.8875C104.729 14.0521 104.82 14.203 104.94 14.3305C105.061 14.458 105.206 14.5594 105.368 14.6281C105.53 14.6967 105.705 14.7312 105.882 14.7293C106.108 14.7561 106.337 14.7159 106.54 14.6138C106.742 14.5117 106.91 14.3524 107.021 14.1561L107.931 14.1561ZM104.606 12.6324H107.025C107.037 12.4737 107.015 12.3143 106.961 12.1644C106.907 12.0146 106.821 11.8776 106.71 11.7622C106.599 11.6469 106.465 11.5557 106.316 11.4946C106.167 11.4336 106.007 11.4039 105.846 11.4075C105.683 11.4055 105.521 11.4358 105.369 11.4967C105.218 11.5575 105.08 11.6477 104.965 11.7618C104.849 11.8759 104.758 12.0118 104.696 12.1613C104.635 12.3108 104.604 12.471 104.606 12.6324Z" fill="white"/>
<path d="M109.301 8.85938H110.246V15.4332H109.301V8.85938Z" fill="white"/>
</g>
<defs>
<clipPath id="clip0_633_7288">
<rect width="137" height="42" fill="white"/>
</clipPath>
</defs>
</svg>
