<svg width="40" height="40" viewBox="0 0 40 40" fill="none" xmlns="http://www.w3.org/2000/svg">
<path d="M0 2.8656C0 1.28354 1.32337 0.000244141 2.95592 0.000244141H37.0441C38.6766 0.000244141 40 1.28354 40 2.8656V37.1349C40 38.7175 38.6766 40.0002 37.0441 40.0002H2.95592C1.32337 40.0002 0 38.7175 0 37.1349V2.8656Z" fill="#006699"/>
<path fill-rule="evenodd" clip-rule="evenodd" d="M12.1254 33.4844V15.4221H6.08371V33.4844H12.1254ZM9.1045 12.956C11.2113 12.956 12.5227 11.5691 12.5227 9.83574C12.4834 8.06341 11.2114 6.71491 9.14447 6.71491C7.07781 6.71491 5.72656 8.06341 5.72656 9.83574C5.72656 11.5691 7.03762 12.956 9.06512 12.956H9.1045Z" fill="white"/>
<path fill-rule="evenodd" clip-rule="evenodd" d="M15.4688 33.4844H21.5103V23.3977C21.5103 22.8578 21.5496 22.3185 21.7091 21.9326C22.1459 20.8541 23.14 19.737 24.809 19.737C26.9952 19.737 27.8697 21.3934 27.8697 23.8215V33.4844H33.9108V23.1277C33.9108 17.5798 30.9302 14.9983 26.9553 14.9983C23.696 14.9983 22.2651 16.8086 21.4702 18.0416H21.5105V15.4221H15.4689C15.5482 17.117 15.4688 33.4844 15.4688 33.4844Z" fill="white"/>
</svg>
