<svg width="40" height="40" viewBox="0 0 40 40" fill="none" xmlns="http://www.w3.org/2000/svg">
<rect width="40" height="40" fill="#1E1E1E"/>
<g id="01-1-Home lv" clip-path="url(#clip0_633_2)">
<rect width="1440" height="5472" transform="translate(-1045 -3103)" fill="white"/>
<g id="sitio completo">
<g id="Contenido">
<rect width="1441" height="355" transform="translate(-1045 -237)" fill="#F5F5F5"/>
<g id="Group 447">
<g id="Group 988">
<rect id="Rectangle 585" x="-98" y="-197" width="405" height="275" fill="white"/>
<g id="Frame 427318812">
<g id="Frame 427318898">
<g id="Instagram_logo_2016" clip-path="url(#clip1_633_2)">
<path id="Vector" d="M20.0092 0.303467C11.7846 0.303467 9.37926 0.311951 8.9117 0.350738C7.22387 0.491037 6.1736 0.756786 5.02939 1.32647C4.1476 1.76433 3.45217 2.27189 2.76582 2.98339C1.51586 4.28092 0.75831 5.87724 0.484076 7.77476C0.350746 8.69594 0.31196 8.88381 0.304081 13.5891C0.301051 15.1576 0.304081 17.2217 0.304081 19.9904C0.304081 28.2084 0.313172 30.6113 0.352565 31.078C0.488924 32.7204 0.746492 33.7537 1.29193 34.8839C2.33432 37.0475 4.32517 38.6717 6.67056 39.2777C7.48265 39.4868 8.37959 39.602 9.53107 39.6565C10.0189 39.6777 14.9915 39.6929 19.9671 39.6929C24.9427 39.6929 29.9183 39.6868 30.3941 39.6626C31.7274 39.5999 32.5016 39.4959 33.3576 39.2747C35.7182 38.6656 37.6726 37.0657 38.7363 34.8718C39.2711 33.7688 39.5423 32.6961 39.665 31.1395C39.6917 30.8001 39.7029 25.3891 39.7029 19.9853C39.7029 14.5806 39.6908 9.17956 39.6641 8.84018C39.5399 7.25841 39.2687 6.1948 38.7166 5.0706C38.2635 4.15032 37.7605 3.46307 37.0302 2.76036C35.7269 1.51555 34.1331 0.757998 32.2337 0.484067C31.3134 0.351041 31.1301 0.311648 26.4212 0.303467H20.0092Z" fill="url(#paint0_radial_633_2)"/>
<path id="Vector_2" d="M20.0092 0.303467C11.7846 0.303467 9.37926 0.311951 8.9117 0.350738C7.22387 0.491037 6.1736 0.756786 5.02939 1.32647C4.1476 1.76433 3.45217 2.27189 2.76582 2.98339C1.51586 4.28092 0.75831 5.87724 0.484076 7.77476C0.350746 8.69594 0.31196 8.88381 0.304081 13.5891C0.301051 15.1576 0.304081 17.2217 0.304081 19.9904C0.304081 28.2084 0.313172 30.6113 0.352565 31.078C0.488924 32.7204 0.746492 33.7537 1.29193 34.8839C2.33432 37.0475 4.32517 38.6717 6.67056 39.2777C7.48265 39.4868 8.37959 39.602 9.53107 39.6565C10.0189 39.6777 14.9915 39.6929 19.9671 39.6929C24.9427 39.6929 29.9183 39.6868 30.3941 39.6626C31.7274 39.5999 32.5016 39.4959 33.3576 39.2747C35.7182 38.6656 37.6726 37.0657 38.7363 34.8718C39.2711 33.7688 39.5423 32.6961 39.665 31.1395C39.6917 30.8001 39.7029 25.3891 39.7029 19.9853C39.7029 14.5806 39.6908 9.17956 39.6641 8.84018C39.5399 7.25841 39.2687 6.1948 38.7166 5.0706C38.2635 4.15032 37.7605 3.46307 37.0302 2.76036C35.7269 1.51555 34.1331 0.757998 32.2337 0.484067C31.3134 0.351041 31.1301 0.311648 26.4212 0.303467H20.0092Z" fill="url(#paint1_radial_633_2)"/>
<path id="Vector_3" d="M20.0003 5.45483C16.0501 5.45483 15.5544 5.47211 14.0029 5.54271C12.4545 5.61362 11.3976 5.85876 10.4727 6.21845C9.5161 6.58995 8.70461 7.08691 7.89615 7.89567C7.08708 8.70413 6.59013 9.51562 6.21741 10.472C5.85682 11.3971 5.61137 12.4543 5.54167 14.0022C5.47228 15.5536 5.4541 16.0497 5.4541 19.9998C5.4541 23.95 5.47168 24.4443 5.54198 25.9957C5.61319 27.5442 5.85833 28.6011 6.21771 29.5259C6.58952 30.4826 7.08648 31.2941 7.89524 32.1025C8.7034 32.9116 9.51489 33.4097 10.4709 33.7812C11.3963 34.1409 12.4536 34.3861 14.0017 34.457C15.5532 34.5276 16.0486 34.5449 19.9985 34.5449C23.949 34.5449 24.4432 34.5276 25.9947 34.457C27.5431 34.3861 28.6013 34.1409 29.5267 33.7812C30.483 33.4097 31.2933 32.9116 32.1015 32.1025C32.9105 31.2941 33.4075 30.4826 33.7802 29.5262C34.1378 28.6011 34.3832 27.5439 34.456 25.996C34.5256 24.4446 34.5438 23.95 34.5438 19.9998C34.5438 16.0497 34.5256 15.5539 34.456 14.0025C34.3832 12.454 34.1378 11.3971 33.7802 10.4723C33.4075 9.51562 32.9105 8.70413 32.1015 7.89567C31.2924 7.0866 30.4833 6.58965 29.5258 6.21845C28.5986 5.85876 27.541 5.61362 25.9926 5.54271C24.4411 5.47211 23.9472 5.45483 19.9958 5.45483H20.0003ZM18.6955 8.07597C19.0828 8.07536 19.5149 8.07597 20.0003 8.07597C23.8838 8.07597 24.3441 8.08991 25.8777 8.1596C27.2959 8.22445 28.0655 8.46141 28.5782 8.66049C29.257 8.92412 29.7409 9.23926 30.2497 9.74834C30.7588 10.2574 31.0739 10.7422 31.3382 11.421C31.5373 11.9331 31.7745 12.7028 31.8391 14.1209C31.9088 15.6542 31.9239 16.1148 31.9239 19.9965C31.9239 23.8782 31.9088 24.3388 31.8391 25.8721C31.7742 27.2902 31.5373 28.0599 31.3382 28.572C31.0745 29.2508 30.7588 29.7341 30.2497 30.2429C29.7406 30.7519 29.2573 31.0671 28.5782 31.3307C28.0661 31.5307 27.2959 31.7671 25.8777 31.8319C24.3444 31.9016 23.8838 31.9168 20.0003 31.9168C16.1165 31.9168 15.6562 31.9016 14.1229 31.8319C12.7048 31.7665 11.9351 31.5295 11.4221 31.3304C10.7433 31.0668 10.2585 30.7516 9.74943 30.2426C9.24035 29.7335 8.92521 29.2499 8.66097 28.5708C8.46189 28.0587 8.22462 27.289 8.16008 25.8709C8.09039 24.3376 8.07645 23.877 8.07645 19.9929C8.07645 16.1088 8.09039 15.6506 8.16008 14.1173C8.22493 12.6992 8.46189 11.9295 8.66097 11.4168C8.9246 10.738 9.24035 10.2532 9.74943 9.7441C10.2585 9.23502 10.7433 8.91988 11.4221 8.65565C11.9348 8.45565 12.7048 8.2193 14.1229 8.15415C15.4647 8.09354 15.9847 8.07536 18.6955 8.07233V8.07597ZM27.7643 10.491C26.8007 10.491 26.0189 11.2719 26.0189 12.2358C26.0189 13.1994 26.8007 13.9812 27.7643 13.9812C28.7279 13.9812 29.5097 13.1994 29.5097 12.2358C29.5097 11.2722 28.7279 10.4904 27.7643 10.4904V10.491ZM20.0003 12.5304C15.8753 12.5304 12.5309 15.8748 12.5309 19.9998C12.5309 24.1249 15.8753 27.4678 20.0003 27.4678C24.1254 27.4678 27.4686 24.1249 27.4686 19.9998C27.4686 15.8748 24.1254 12.5304 20.0003 12.5304ZM20.0003 15.1515C22.6778 15.1515 24.8487 17.322 24.8487 19.9998C24.8487 22.6773 22.6778 24.8482 20.0003 24.8482C17.3225 24.8482 15.152 22.6773 15.152 19.9998C15.152 17.322 17.3225 15.1515 20.0003 15.1515Z" fill="white"/>
</g>
</g>
</g>
</g>
</g>
</g>
</g>
</g>
<defs>
<radialGradient id="paint0_radial_633_2" cx="0" cy="0" r="1" gradientUnits="userSpaceOnUse" gradientTransform="translate(10.7685 42.7267) rotate(-90) scale(39.0378 36.3181)">
<stop stop-color="#FFDD55"/>
<stop offset="0.1" stop-color="#FFDD55"/>
<stop offset="0.5" stop-color="#FF543E"/>
<stop offset="1" stop-color="#C837AB"/>
</radialGradient>
<radialGradient id="paint1_radial_633_2" cx="0" cy="0" r="1" gradientUnits="userSpaceOnUse" gradientTransform="translate(-6.297 3.14101) rotate(78.6776) scale(17.4502 71.9488)">
<stop stop-color="#3771C8"/>
<stop offset="0.128" stop-color="#3771C8"/>
<stop offset="1" stop-color="#6600FF" stop-opacity="0"/>
</radialGradient>
<clipPath id="clip0_633_2">
<rect width="1440" height="5472" fill="white" transform="translate(-1045 -3103)"/>
</clipPath>
<clipPath id="clip1_633_2">
<rect width="40" height="39.9988" fill="white" transform="translate(0 0.000488281)"/>
</clipPath>
</defs>
</svg>
