<svg width="40" height="28" viewBox="0 0 40 28" fill="none" xmlns="http://www.w3.org/2000/svg">
<g clip-path="url(#clip0_773_1481)">
<path d="M39.2834 4.39244C38.8217 2.66739 37.466 1.31176 35.7409 0.849991C32.6175 0.0122073 20.0869 0.012207 20.0869 0.012207C20.0869 0.012207 7.5565 0.0122073 4.43295 0.849991C2.70792 1.31176 1.35229 2.66739 0.890518 4.39244C0.0527346 7.51597 0.0527344 14.0368 0.0527344 14.0368C0.0527344 14.0368 0.0527346 20.5577 0.890518 23.6813C1.35229 25.4063 2.70792 26.7619 4.43295 27.2236C7.5565 28.0615 20.0869 28.0615 20.0869 28.0615C20.0869 28.0615 32.6175 28.0615 35.7409 27.2236C37.466 26.7619 38.8217 25.4063 39.2834 23.6813C40.1213 20.5577 40.1213 14.0368 40.1213 14.0368C40.1213 14.0368 40.1179 7.51597 39.2834 4.39244Z" fill="#FF0000"/>
<path d="M16.0762 20.047L26.4858 14.0375L16.0762 8.02783V20.047Z" fill="white"/>
</g>
<defs>
<clipPath id="clip0_773_1481">
<rect width="40" height="27.9755" fill="white" transform="translate(0 0.012207)"/>
</clipPath>
</defs>
</svg>
