<svg width="80" height="80" viewBox="0 0 80 80" fill="none" xmlns="http://www.w3.org/2000/svg">
<path fill-rule="evenodd" clip-rule="evenodd" d="M38.3333 48.6654V31.3354L47.6967 39.9987L38.3333 48.6654ZM41.13 24.8421C39.47 23.3021 37.0467 22.9021 34.96 23.8187C32.9267 24.7054 31.6667 26.6021 31.6667 28.7654V51.2354C31.6667 53.3988 32.9267 55.2954 34.96 56.1821C35.7033 56.5088 36.4933 56.6654 37.27 56.6654C38.68 56.6654 40.0633 56.1488 41.1267 55.1621L53.2667 43.9287C54.37 42.9087 55 41.4787 55 39.9987C55 38.5221 54.37 37.0887 53.2667 36.0721L41.13 24.8421ZM40 66.6667C25.2967 66.6667 13.3333 54.7034 13.3333 40.0001C13.3333 25.2967 25.2967 13.3334 40 13.3334C54.7033 13.3334 66.6667 25.2967 66.6667 40.0001C66.6667 54.7034 54.7033 66.6667 40 66.6667ZM40 6.66675C21.62 6.66675 6.66666 21.6201 6.66666 40.0001C6.66666 58.3801 21.62 73.3334 40 73.3334C58.38 73.3334 73.3333 58.3801 73.3333 40.0001C73.3333 21.6201 58.38 6.66675 40 6.66675Z" fill="white"/>
<mask id="mask0_642_6048" style="mask-type:alpha" maskUnits="userSpaceOnUse" x="6" y="6" width="68" height="68">
<path fill-rule="evenodd" clip-rule="evenodd" d="M38.3333 48.6654V31.3354L47.6967 39.9987L38.3333 48.6654ZM41.13 24.8421C39.47 23.3021 37.0467 22.9021 34.96 23.8187C32.9267 24.7054 31.6667 26.6021 31.6667 28.7654V51.2354C31.6667 53.3988 32.9267 55.2954 34.96 56.1821C35.7033 56.5088 36.4933 56.6654 37.27 56.6654C38.68 56.6654 40.0633 56.1488 41.1267 55.1621L53.2667 43.9287C54.37 42.9087 55 41.4787 55 39.9987C55 38.5221 54.37 37.0887 53.2667 36.0721L41.13 24.8421ZM40 66.6667C25.2967 66.6667 13.3333 54.7034 13.3333 40.0001C13.3333 25.2967 25.2967 13.3334 40 13.3334C54.7033 13.3334 66.6667 25.2967 66.6667 40.0001C66.6667 54.7034 54.7033 66.6667 40 66.6667ZM40 6.66675C21.62 6.66675 6.66666 21.6201 6.66666 40.0001C6.66666 58.3801 21.62 73.3334 40 73.3334C58.38 73.3334 73.3333 58.3801 73.3333 40.0001C73.3333 21.6201 58.38 6.66675 40 6.66675Z" fill="white"/>
</mask>
<g mask="url(#mask0_642_6048)">
<rect width="80" height="80" fill="white"/>
</g>
</svg>
