<svg width="40" height="40" viewBox="0 0 40 40" fill="none" xmlns="http://www.w3.org/2000/svg">
<path fill-rule="evenodd" clip-rule="evenodd" d="M13.6075 4.9775C11.3212 5.59213 9.04973 6.26065 6.79499 6.9825C6.59095 7.04549 6.40881 7.16476 6.2695 7.32662C6.1302 7.48847 6.03939 7.68635 6.00749 7.8975C4.67499 17.64 7.74999 24.75 11.4175 29.4325C13.2575 31.7825 15.25 33.5225 16.91 34.665C17.7425 35.235 18.475 35.65 19.0525 35.915C19.3425 36.0475 19.5775 36.1375 19.7575 36.19C19.8369 36.2155 19.9179 36.2356 20 36.25C20.0175 36.2475 20.095 36.2375 20.2425 36.1925C20.4225 36.1375 20.6575 36.0475 20.9475 35.915C21.5225 35.65 22.26 35.235 23.09 34.665C25.1715 33.2045 27.0229 31.4408 28.5825 29.4325C32.25 24.75 35.325 17.64 33.9925 7.8975C33.9606 7.68635 33.8698 7.48847 33.7305 7.32662C33.5912 7.16476 33.409 7.04549 33.205 6.9825C31.64 6.4825 29 5.6675 26.3925 4.9775C23.7275 4.275 21.275 3.75 20 3.75C18.725 3.75 16.275 4.275 13.6075 4.9775ZM12.9675 2.5625C15.575 1.8725 18.3425 1.25 20 1.25C21.655 1.25 24.425 1.8725 27.0325 2.5625C29.3582 3.18694 31.6689 3.86629 33.9625 4.6C35.2825 5.02 36.2775 6.1575 36.47 7.56C37.9025 18.0525 34.58 25.8275 30.5525 30.9725C28.8362 33.1805 26.7986 35.1187 24.5075 36.7225C23.7109 37.2805 22.8687 37.7706 21.99 38.1875C21.315 38.4975 20.595 38.75 20 38.75C19.405 38.75 18.685 38.4975 18.01 38.1875C17.1311 37.7709 16.2889 37.2809 15.4925 36.7225C13.2023 35.1185 11.1656 33.1803 9.44999 30.9725C5.41749 25.8275 2.09749 18.0525 3.52999 7.56C3.62577 6.88018 3.91211 6.24138 4.35587 5.71754C4.79963 5.1937 5.38267 4.80624 6.03749 4.6C8.33111 3.86631 10.6418 3.18695 12.9675 2.5625V2.5625Z" fill="#0868A0"/>
<path d="M23.75 16.25C23.75 17.2446 23.3549 18.1984 22.6517 18.9017C21.9484 19.6049 20.9946 20 20 20C19.0054 20 18.0516 19.6049 17.3483 18.9017C16.6451 18.1984 16.25 17.2446 16.25 16.25C16.25 15.2554 16.6451 14.3016 17.3483 13.5983C18.0516 12.8951 19.0054 12.5 20 12.5C20.9946 12.5 21.9484 12.8951 22.6517 13.5983C23.3549 14.3016 23.75 15.2554 23.75 16.25Z" fill="#0868A0"/>
<path d="M18.5275 20.0855C18.5766 19.7941 18.7273 19.5294 18.9529 19.3386C19.1786 19.1477 19.4645 19.043 19.76 19.043H20.15C20.444 19.0433 20.7285 19.1472 20.9535 19.3365C21.1784 19.5258 21.3295 19.7883 21.38 20.078L22.2475 25.078C22.2785 25.2575 22.2698 25.4417 22.2222 25.6175C22.1745 25.7934 22.089 25.9567 21.9716 26.096C21.8542 26.2353 21.7077 26.3473 21.5425 26.4241C21.3772 26.5008 21.1972 26.5406 21.015 26.5405H18.9275C18.7461 26.5404 18.5668 26.5008 18.4022 26.4245C18.2376 26.3481 18.0916 26.2369 17.9743 26.0984C17.857 25.96 17.7713 25.7976 17.7231 25.6227C17.6748 25.4478 17.6653 25.2645 17.695 25.0855L18.5275 20.0855Z" fill="#0868A0"/>
</svg>